<?xml version="1.0" standalone="no"?>
<!DOCTYPE svg PUBLIC "-//W3C//DTD SVG 20010904//EN"
 "http://www.w3.org/TR/2001/REC-SVG-20010904/DTD/svg10.dtd">
<svg version="1.0" xmlns="http://www.w3.org/2000/svg"
 width="1080.000000pt" height="1080.000000pt" viewBox="0 0 1080.000000 1080.000000"
 preserveAspectRatio="xMidYMid meet">
<metadata>
Created by potrace 1.11, written by Peter Selinger 2001-2013
</metadata>
<g transform="translate(0.000000,1080.000000) scale(0.100000,-0.100000)"
fill="#000000" stroke="none">
<path d="M0 8513 c0 -1258 4 -2292 9 -2297 17 -23 21 -75 6 -90 -13 -12 -15
-65 -15 -325 0 -286 1 -310 18 -314 16 -4 16 -5 0 -6 -15 -1 -18 -11 -18 -55
0 -47 3 -56 21 -61 l21 -7 -20 -21 c-18 -19 -21 -35 -21 -117 0 -62 5 -97 12
-102 9 -6 9 -8 0 -8 -20 0 -15 -17 7 -23 11 -3 20 -11 20 -17 0 -7 -8 -10 -20
-7 -20 5 -20 0 -20 -2529 l0 -2534 5400 0 5400 0 0 5400 0 5400 -2621 0 -2621
0 6 -77 c5 -63 3 -80 -11 -95 -9 -10 -13 -21 -9 -25 4 -4 11 -1 16 7 5 8 12
11 16 7 9 -9 -27 -38 -41 -33 -5 2 -18 -1 -27 -6 -13 -6 -18 -5 -18 7 0 8 7
15 15 15 8 0 15 5 15 11 0 7 -10 9 -25 5 -25 -6 -30 1 -27 44 0 8 -6 39 -14
67 -9 29 -13 57 -9 63 3 5 -1 10 -10 10 -24 0 -59 -91 -72 -185 -7 -53 -6
-187 1 -250 5 -34 3 -45 -3 -35 -8 11 -12 5 -17 -28 -3 -23 -17 -54 -30 -69
-13 -15 -26 -40 -29 -55 -4 -15 -10 -28 -14 -28 -11 0 -49 -82 -55 -118 -5
-31 -4 -32 26 -30 18 2 32 -2 34 -10 1 -7 0 -8 -3 -2 -7 15 -33 12 -39 -5 -7
-18 -30 -20 -37 -2 -3 6 -6 2 -6 -9 -1 -12 7 -28 17 -35 14 -11 17 -22 11 -54
l-6 -40 -2 38 c0 20 -5 37 -11 37 -5 0 -7 -6 -4 -14 3 -8 1 -17 -4 -20 -12 -7
-7 -53 8 -71 8 -9 30 -15 56 -15 37 0 42 -3 37 -17 -4 -11 -8 -12 -11 -5 -6
18 -82 16 -82 -3 0 -8 -6 -15 -12 -15 -10 0 -10 -2 -1 -8 7 -4 13 -25 15 -46
1 -20 6 -40 12 -43 5 -4 6 -1 1 7 -5 8 -3 11 6 8 7 -2 18 -20 23 -39 l10 -34
4 37 c3 34 26 58 41 42 3 -4 0 -9 -6 -11 -7 -3 -13 -16 -13 -30 0 -15 5 -23
13 -20 6 2 11 11 11 19 -1 10 7 16 23 16 31 0 42 10 23 22 -10 7 -11 10 -2 10
16 0 16 67 0 72 -8 3 -6 12 6 29 17 22 18 22 13 3 -2 -12 -1 -39 3 -60 8 -38
8 -38 9 -6 1 45 18 40 23 -8 2 -27 0 -40 -9 -40 -7 0 -10 -6 -7 -14 3 -8 12
-12 20 -9 11 4 13 24 8 102 -4 57 -2 118 5 151 6 30 13 64 15 75 10 59 141
355 157 355 5 0 9 12 9 26 0 19 15 42 50 76 28 27 50 52 50 56 0 4 10 13 21
20 21 13 21 12 17 -18 -3 -18 0 -34 6 -36 7 -3 11 -37 10 -92 0 -72 4 -95 23
-133 13 -26 23 -51 23 -56 0 -5 9 -19 20 -31 12 -12 16 -22 10 -22 -5 0 -10
-11 -10 -24 0 -19 -6 -25 -31 -28 -19 -3 -36 1 -45 9 -8 8 -19 11 -26 7 -8 -5
-4 -10 10 -15 12 -5 22 -13 22 -19 0 -6 -4 -9 -8 -6 -20 12 -34 -15 -36 -70
-1 -34 -7 -59 -14 -62 -15 -5 -16 -34 -2 -48 7 -7 8 -30 2 -68 -5 -31 -6 -59
-1 -61 4 -3 10 -19 14 -35 4 -17 12 -30 18 -30 7 0 4 -5 -5 -11 -21 -12 -24
-39 -4 -39 20 0 46 -44 46 -77 l0 -28 -19 24 -19 24 2 -41 c1 -45 9 -53 25
-24 9 16 11 16 25 -3 18 -24 19 -32 6 -40 -5 -3 -10 -28 -10 -56 0 -29 -4 -49
-11 -49 -7 0 -10 17 -7 45 2 25 0 45 -4 45 -5 0 -8 -3 -8 -7 -1 -5 -5 -27 -9
-50 -5 -25 -4 -46 1 -51 6 -6 6 -12 -1 -16 -18 -11 -13 -26 9 -26 15 0 20 7
20 28 l1 27 30 -34 31 -33 -7 76 c-5 50 -4 76 3 76 6 0 13 -38 16 -87 10 -127
15 -153 31 -153 8 0 15 8 15 18 0 14 2 15 9 2 11 -16 -22 -46 -39 -35 -16 10
-12 -25 5 -41 9 -9 15 -34 15 -60 0 -35 -4 -44 -17 -45 -32 -1 18 -18 57 -18
24 -1 31 -4 21 -10 -14 -9 -7 -51 9 -51 5 0 7 -12 4 -28 -4 -20 1 -35 20 -57
l25 -29 11 24 10 25 -5 -27 c-3 -15 -1 -38 5 -52 6 -17 6 -26 0 -26 -6 0 -10
9 -10 20 0 11 -4 20 -10 20 -13 0 -13 -12 0 -45 7 -17 7 -24 0 -20 -6 3 -10 2
-10 -4 0 -5 -9 -13 -20 -16 -30 -10 -24 -25 10 -25 30 0 30 -1 30 -55 0 -48
-4 -59 -27 -80 -23 -20 -25 -24 -10 -25 26 0 21 -25 -13 -57 -35 -32 -37 -43
-11 -43 14 0 20 -9 23 -37 3 -21 5 -38 4 -39 -1 -1 -16 -4 -33 -7 -25 -5 -33
-3 -33 8 0 9 -9 15 -22 15 -20 0 -20 -1 -4 -19 11 -12 14 -21 7 -25 -15 -10
-51 12 -51 29 0 8 -4 15 -8 15 -4 0 -9 15 -10 32 -3 31 -2 32 12 13 14 -19 15
-17 15 25 0 40 -1 43 -13 28 -16 -22 -36 -23 -36 -3 0 9 -7 18 -15 21 -8 4
-15 14 -16 23 -1 9 -5 -4 -10 -28 -5 -27 -5 -51 2 -62 5 -11 7 -24 4 -29 -3
-5 -1 -27 5 -47 6 -21 18 -66 25 -101 37 -166 101 -328 200 -502 47 -83 62
-104 204 -284 75 -93 101 -154 101 -231 0 -47 -37 -148 -51 -139 -5 3 -9 -3
-10 -13 -3 -59 4 -219 13 -283 5 -41 9 -89 9 -107 -1 -18 4 -35 9 -38 6 -3 10
3 10 14 0 13 7 21 18 21 14 0 15 2 2 10 -9 6 -10 10 -3 10 6 0 15 10 18 21 7
20 8 20 22 -8 8 -17 26 -36 41 -42 20 -10 23 -14 12 -21 -11 -7 -11 -11 -1
-24 11 -14 15 -14 28 -1 20 20 36 19 31 -2 -3 -11 6 -27 23 -41 l27 -22 -4
100 c-3 62 -1 100 5 100 11 0 20 -143 8 -148 -13 -6 -7 -22 6 -16 8 3 18 -6
25 -21 16 -34 15 -45 -3 -45 -8 0 -15 4 -15 9 0 5 -11 4 -25 -2 -26 -12 -32
-31 -15 -42 6 -3 10 1 10 9 0 12 10 16 40 16 l40 0 -5 -168 c-3 -124 -8 -176
-20 -198 -9 -17 -15 -56 -15 -94 0 -36 -5 -83 -10 -105 -10 -46 -20 -116 -23
-160 -1 -16 -4 -32 -7 -35 -6 -5 -20 -54 -46 -160 l-17 -66 63 -59 c85 -81 82
-78 108 -112 13 -17 39 -48 57 -69 19 -21 33 -40 31 -41 -6 -6 -36 9 -36 18 0
5 -39 34 -87 65 -49 31 -101 67 -117 81 -44 36 -56 18 -56 -82 0 -85 -19 -145
-45 -145 -7 0 -16 -6 -18 -12 -3 -7 -6 -2 -6 12 l-1 25 -14 -27 c-10 -20 -16
-93 -21 -275 l-7 -248 103 -42 c57 -22 127 -48 154 -57 48 -15 105 -57 105
-76 0 -6 9 -10 21 -10 11 0 18 -4 15 -9 -3 -5 6 -16 19 -25 14 -9 23 -20 21
-25 -3 -4 3 -17 14 -28 10 -12 16 -24 13 -27 -4 -3 -2 -6 4 -6 6 0 17 -15 24
-32 7 -18 22 -42 32 -53 35 -38 77 -109 88 -148 6 -24 8 -90 4 -175 -10 -186
8 -281 77 -414 59 -112 59 -136 1 -163 -29 -14 -43 -16 -64 -8 -33 13 -80 -12
-175 -93 -121 -102 -117 -101 -377 -107 -188 -5 -254 -3 -382 13 -84 11 -211
20 -282 20 -127 1 -163 4 -215 16 -18 4 -28 2 -28 -5 0 -6 -4 -11 -10 -11 -5
0 -7 6 -5 13 3 6 0 19 -5 27 -9 13 -11 13 -20 0 -7 -10 -12 -12 -17 -4 -5 6
-15 11 -23 12 -169 9 -241 15 -320 27 -255 40 -352 58 -435 81 -103 29 -167
42 -278 54 -43 5 -89 16 -102 24 -28 19 -86 22 -83 4 4 -14 -60 -29 -65 -15
-2 7 -18 6 -48 -2 -24 -6 -60 -13 -79 -15 -19 -2 -53 -7 -76 -11 -25 -4 -49
-3 -62 4 -16 8 -28 8 -47 -1 -18 -8 -29 -9 -33 -1 -4 5 -16 8 -27 7 -31 -6
-160 -22 -260 -33 -100 -12 -234 -13 -310 -3 -40 6 -50 11 -52 27 -2 11 -8 47
-14 80 -12 67 -6 404 11 655 6 85 8 223 5 305 -2 83 -7 258 -10 390 -3 132
-10 267 -15 300 -5 33 -12 105 -15 160 -4 55 -11 125 -15 155 -18 113 -25 263
-24 548 0 160 -3 292 -8 292 -4 0 -8 -4 -8 -10 0 -5 -5 -10 -11 -10 -6 0 -9 8
-7 18 2 9 11 16 21 16 15 -2 17 9 17 90 0 50 -5 130 -11 176 -6 47 -13 103
-15 125 -3 22 -7 54 -9 70 -2 17 -6 62 -9 100 -3 39 -8 112 -12 164 -7 99 -25
185 -22 106 1 -22 -1 -46 -6 -53 -4 -7 -4 -18 1 -24 4 -7 8 -51 8 -98 1 -47 4
-101 9 -121 6 -27 4 -40 -8 -52 -16 -16 -23 -87 -8 -87 7 0 32 -48 32 -63 0
-5 -13 -6 -30 -2 -23 5 -37 1 -63 -19 -19 -14 -41 -26 -50 -26 -10 0 -17 -6
-17 -14 0 -8 -6 -17 -12 -19 -10 -4 -10 -8 -1 -14 7 -5 -2 -14 -28 -27 -23
-12 -39 -26 -39 -37 0 -9 -6 -19 -12 -22 -7 -2 -10 -8 -5 -12 4 -5 13 -3 19 3
7 7 18 12 25 12 11 0 9 -6 -4 -24 -10 -13 -22 -22 -28 -20 -6 2 -16 -5 -23
-16 -11 -18 -10 -20 8 -20 17 0 19 -3 10 -19 -5 -11 -10 -29 -10 -40 0 -13 -7
-21 -17 -22 -14 0 -14 -2 3 -9 34 -13 39 -30 10 -30 -35 0 -33 -10 14 -53 39
-36 70 -48 70 -27 0 6 -9 10 -20 10 -11 0 -20 5 -20 10 0 12 27 13 34 1 3 -4
38 -11 77 -14 39 -3 74 -8 77 -11 3 -3 -2 -14 -11 -23 -8 -10 -17 -36 -20 -58
-4 -40 -4 -40 -5 8 -1 26 -6 47 -11 47 -13 0 -43 -49 -36 -60 3 -5 0 -18 -7
-29 -10 -16 -10 -23 0 -33 9 -9 12 -7 12 12 1 23 2 23 11 7 6 -11 9 -30 6 -43
-3 -19 -1 -24 10 -20 10 4 11 1 4 -12 -10 -19 -3 -142 9 -142 9 0 7 -67 -2
-76 -4 -4 -3 -15 3 -25 5 -11 7 -19 4 -19 -4 0 3 -11 14 -25 14 -19 18 -35 14
-59 -3 -18 -1 -36 4 -39 12 -8 6 -157 -7 -173 -6 -7 -12 -35 -12 -64 -1 -28
-5 -53 -9 -56 -5 -2 -6 -10 -3 -17 2 -7 -7 -35 -22 -62 -14 -27 -26 -64 -27
-82 -2 -32 -19 -44 -32 -23 -4 7 -12 7 -25 0 -29 -15 -32 -12 -17 18 15 32 15
124 0 129 -8 3 -8 14 -2 36 5 17 6 40 3 49 -4 13 0 18 15 18 14 0 19 -6 19
-22 -3 -55 2 -78 18 -78 14 0 16 8 11 55 -7 67 -12 75 -43 75 -13 0 -25 3 -25
8 -1 4 -3 30 -4 59 -2 29 -7 58 -11 65 -5 7 -9 35 -11 62 -2 28 -7 54 -13 60
-5 5 -10 21 -11 36 l-1 25 -8 -25 -7 -25 -8 28 c-4 15 -11 27 -16 27 -5 0 -9
14 -9 30 0 18 -6 33 -15 36 -8 4 -15 14 -15 24 0 10 -5 20 -11 22 -7 2 -10 37
-10 94 1 71 -3 98 -19 129 -11 22 -20 49 -20 61 0 12 -7 25 -16 28 -8 3 -12
10 -9 16 10 17 -18 150 -32 150 -18 0 -31 30 -31 73 0 33 3 38 19 34 23 -6 25
15 3 37 -8 9 -11 16 -5 16 6 0 11 8 11 18 0 10 3 22 7 26 5 4 8 42 8 84 0 57
3 76 13 74 8 -1 12 11 10 43 -1 49 16 79 44 72 21 -6 22 -4 8 23 -5 11 -15 29
-20 40 -13 26 -13 30 3 30 7 0 17 -8 24 -18 16 -26 72 -18 77 12 12 59 13 82
4 99 -7 14 -5 23 7 37 12 13 13 19 4 22 -8 3 -13 27 -14 65 -1 38 -8 71 -18
87 -9 14 -17 40 -17 59 0 19 -3 37 -7 40 -3 4 -7 19 -9 34 -1 16 -5 47 -9 71
-6 35 -5 42 8 42 14 0 15 5 6 28 -6 15 -11 42 -11 60 0 21 -5 32 -14 32 -15 0
-19 26 -5 34 14 9 5 148 -11 157 -9 6 -10 9 -1 9 8 0 11 10 7 28 -3 15 -1 54
4 87 6 36 6 64 1 71 -5 6 -6 38 -3 72 5 47 3 69 -10 97 -9 19 -14 39 -11 44 3
5 1 12 -4 15 -5 4 -8 18 -5 31 3 18 0 25 -11 25 -8 0 -15 4 -15 10 0 5 7 7 16
3 13 -5 14 0 8 33 -4 22 -10 41 -13 44 -3 3 -7 28 -9 55 -6 88 -10 116 -22
130 -6 8 -10 29 -9 47 2 18 0 39 -5 46 -4 6 -5 16 -2 21 3 5 0 14 -8 20 -7 6
-12 25 -11 43 1 18 -4 55 -11 82 -7 28 -18 84 -25 125 -6 42 -15 81 -21 88 -5
7 -7 17 -3 23 3 5 3 15 -1 21 -10 17 -12 79 -2 85 4 3 6 9 3 14 -12 20 20 50
52 50 34 0 45 -16 18 -26 -24 -9 -17 -24 10 -24 14 0 25 -6 26 -12 0 -7 4 -4
9 7 8 20 9 20 9 -1 1 -12 12 -33 26 -48 14 -15 25 -38 25 -52 0 -13 3 -23 8
-23 30 5 72 -29 72 -59 0 -11 5 -24 10 -27 6 -4 8 -21 4 -41 -5 -25 -2 -35 9
-40 9 -3 17 -26 22 -62 4 -31 13 -70 20 -87 7 -16 16 -48 20 -69 5 -29 9 -36
15 -25 6 9 8 -3 5 -32 -4 -41 -2 -47 20 -59 24 -13 35 -50 15 -50 -5 0 -10 -4
-10 -10 0 -5 7 -10 15 -10 8 0 14 -8 13 -17 -2 -10 4 -43 11 -75 8 -31 10 -65
6 -75 -12 -29 -15 -63 -4 -63 5 0 9 -7 9 -16 0 -8 -4 -12 -10 -9 -5 3 -3 -10
5 -29 15 -35 15 -143 1 -181 -6 -15 -5 -16 2 -6 8 11 11 9 16 -10 5 -26 0 520
-11 1013 -5 257 -3 325 10 415 9 59 21 151 27 203 10 89 27 158 51 202 10 19
49 25 49 8 0 -5 5 -10 11 -10 6 0 8 7 5 17 -4 10 -4 15 -1 11 3 -3 41 9 85 27
115 49 203 69 264 60 28 -4 60 -7 71 -6 27 0 74 -21 80 -36 2 -7 0 -13 -5 -13
-5 0 -2 -12 6 -27 7 -16 14 -33 14 -39 0 -7 7 -14 15 -18 8 -3 15 -12 15 -20
0 -8 10 -22 22 -30 21 -15 21 -16 3 -17 -17 0 -17 -1 4 -10 19 -7 21 -12 11
-23 -9 -12 -7 -17 8 -25 21 -11 92 -4 92 10 0 5 12 23 28 41 15 18 32 42 39
53 7 11 39 63 71 115 71 116 77 129 52 123 -28 -7 -35 17 -11 41 19 18 23 19
31 6 8 -13 11 -13 22 -1 10 11 10 14 1 18 -30 11 -3 67 28 61 9 -2 14 7 15 23
1 35 11 49 35 49 13 0 19 7 19 21 0 11 13 33 30 47 17 15 30 32 30 39 0 7 11
23 25 35 14 12 25 27 25 33 0 6 14 24 30 40 17 16 30 34 30 41 0 7 8 19 18 26
11 7 24 23 31 35 6 13 21 33 32 45 18 20 76 93 159 200 14 18 30 42 37 55 10
20 9 23 -7 23 -10 0 -26 -7 -34 -16 -15 -14 -16 -14 -16 0 0 22 -53 21 -87 -1
-26 -17 -27 -17 -20 0 10 26 -53 24 -76 -3 -18 -22 -37 -19 -37 6 0 9 -11 14
-35 14 -24 0 -33 -4 -29 -13 2 -7 -4 -21 -15 -31 -19 -17 -21 -17 -27 -2 -3 9
-1 23 6 31 11 13 -1 15 -101 13 -126 -1 -156 -13 -180 -69 -13 -32 -39 -39
-39 -11 0 19 27 50 45 51 6 1 10 7 10 14 0 20 -51 20 -67 0 -7 -10 -20 -24
-29 -30 -14 -11 -16 -9 -14 17 l2 30 -72 0 c-42 0 -76 -5 -83 -12 -9 -9 -15
-9 -24 0 -17 17 -154 16 -162 0 -5 -10 -7 -10 -12 0 -5 10 -351 12 -1700 12
l-1694 0 0 -2287z m3490 2268 c0 -13 -29 -35 -37 -28 -7 8 15 37 28 37 5 0 9
-4 9 -9z m179 -4 c13 -16 -4 -37 -31 -37 -21 0 -22 4 -8 31 12 22 23 24 39 6z
m375 -25 c-13 -19 -35 -23 -41 -6 -2 7 4 19 13 28 22 23 44 5 28 -22z m382 13
c7 -18 -12 -45 -32 -45 -17 0 -18 32 -2 48 16 16 27 15 34 -3z m-480 -7 c4 -6
-3 -20 -17 -31 -22 -17 -24 -18 -27 -3 -4 18 14 46 29 46 4 0 11 -5 15 -12z
m372 -23 c-14 -31 -47 -41 -40 -11 5 24 31 48 43 40 5 -2 3 -15 -3 -29z
m-1658 5 c-8 -5 -17 -7 -19 -4 -3 3 1 9 9 14 8 5 17 7 19 4 3 -3 -1 -9 -9 -14z
m890 7 c0 -14 -20 -37 -32 -37 -12 0 -10 24 4 38 16 16 28 15 28 -1z m654 -34
c-14 -23 -30 -27 -37 -9 -8 21 22 51 37 36 7 -7 7 -15 0 -27z m-844 12 c-7 -8
-17 -15 -22 -15 -6 0 -5 7 2 15 7 8 17 15 22 15 6 0 5 -7 -2 -15z m374 6 c3
-5 -3 -20 -14 -32 -16 -20 -21 -22 -29 -10 -6 10 -6 22 0 33 10 19 34 24 43 9z
m366 -13 c0 -24 -18 -41 -34 -35 -14 5 -15 11 -6 27 12 22 40 27 40 8z m-687
-30 c-10 -11 -19 -15 -21 -8 -5 15 18 41 30 34 5 -3 1 -15 -9 -26z m207 13
c-1 -15 -30 -42 -39 -36 -24 14 -1 58 25 48 8 -3 14 -8 14 -12z m366 -19 c-4
-11 -16 -22 -27 -25 -17 -4 -19 -2 -13 16 3 12 11 28 17 35 14 18 31 -1 23
-26z m-1365 5 c-13 -13 -26 -3 -16 12 3 6 11 8 17 5 6 -4 6 -10 -1 -17z m1755
8 c7 -18 -12 -45 -32 -45 -17 0 -18 32 -2 48 16 16 27 15 34 -3z m-4296 -5 c0
-5 -7 -10 -15 -10 -8 0 -15 5 -15 10 0 6 7 10 15 10 8 0 15 -4 15 -10z m3681
-59 c-17 -15 -31 -31 -31 -38 0 -14 -27 -43 -41 -43 -21 0 -7 40 21 60 17 12
30 28 30 36 0 8 10 24 23 37 l22 22 3 -24 c3 -18 -5 -32 -27 -50z m129 57 c0
-7 -7 -22 -15 -32 -21 -27 -42 -8 -26 23 13 23 41 29 41 9z m-1044 -80 c52
-45 102 -97 111 -115 18 -38 13 -52 -10 -28 -17 16 -37 20 -37 6 0 -5 -9 -11
-20 -14 -19 -5 -19 -4 -4 31 15 36 15 36 -21 69 -20 18 -38 33 -41 33 -6 0
-78 80 -82 91 -8 20 14 5 104 -73z m1424 73 c0 -12 -29 -41 -41 -41 -10 0 -12
12 -3 34 6 17 44 23 44 7z m-780 -16 c0 -8 -9 -19 -20 -25 -21 -11 -25 -4 -14
24 8 20 34 21 34 1z m665 5 c6 -10 -15 -50 -28 -50 -14 0 -19 30 -7 45 14 17
26 19 35 5z m-845 -9 c0 -11 -29 -35 -35 -29 -10 9 7 38 21 38 8 0 14 -4 14
-9z m365 -1 c9 -14 -13 -50 -30 -50 -18 0 -20 31 -3 48 15 15 25 15 33 2z
m3633 -102 c33 -35 70 -74 82 -88 12 -14 31 -36 43 -50 12 -14 49 -60 82 -103
175 -227 345 -487 345 -527 0 -17 29 -85 105 -245 13 -27 36 -77 50 -110 15
-33 37 -82 50 -110 40 -86 61 -137 94 -225 18 -47 39 -98 47 -113 8 -16 14
-34 14 -39 0 -6 24 -63 54 -127 29 -64 70 -161 89 -216 20 -56 55 -138 77
-183 22 -46 40 -86 40 -89 0 -20 82 -212 163 -383 72 -151 160 -357 202 -470
15 -41 33 -91 40 -110 7 -19 24 -69 36 -110 25 -83 107 -334 168 -510 41 -121
50 -143 113 -279 21 -46 48 -111 59 -145 11 -33 28 -68 37 -76 20 -17 44 -57
65 -110 8 -19 30 -71 50 -115 19 -44 49 -123 67 -175 17 -52 49 -127 71 -167
22 -39 36 -74 32 -76 -5 -3 -29 -5 -53 -5 -45 0 -68 -9 -124 -47 -16 -10 -41
-18 -57 -17 -15 1 -34 -5 -42 -13 -18 -18 -31 -20 -21 -3 4 6 3 8 -3 5 -6 -4
-14 0 -17 9 -4 11 -13 14 -30 10 -28 -7 -41 3 -21 18 10 7 12 16 6 25 -7 10
-37 14 -124 15 -63 1 -113 4 -110 9 2 4 -2 7 -11 7 -8 0 -17 -6 -19 -12 -4 -9
-8 -10 -14 -2 -4 6 -37 10 -73 9 -36 -1 -68 3 -72 9 -5 7 -8 5 -8 -4 0 -10
-10 -15 -30 -15 -16 0 -30 3 -30 6 0 3 -20 3 -45 -1 -29 -4 -46 -3 -48 4 -3 8
-8 7 -17 -1 -9 -8 -19 -9 -31 -3 -9 5 -40 8 -67 6 -36 -2 -52 0 -56 10 -4 11
-12 10 -38 -5 -25 -15 -52 -19 -108 -19 -109 0 -357 -13 -415 -22 -27 -4 -55
-4 -61 1 -7 5 -8 28 -4 61 4 29 4 55 -1 58 -5 3 -2 19 7 35 12 23 13 34 3 57
-15 37 5 85 28 67 10 -9 13 -7 13 7 0 11 7 28 15 38 37 49 -2 98 -46 57 -24
-22 -51 -17 -47 8 1 9 -1 21 -5 28 -9 14 -2 19 46 27 23 4 37 3 37 -4 0 -5
-12 -11 -27 -11 -18 -1 -21 -3 -10 -6 17 -4 60 6 121 30 26 9 27 12 10 18 -18
7 -18 8 2 8 11 1 24 5 30 10 5 5 36 12 69 16 l60 7 -22 -19 c-13 -12 -23 -32
-23 -47 0 -20 5 -26 23 -26 21 1 21 1 3 15 -10 7 -15 18 -11 24 9 16 25 13 25
-4 0 -18 26 -20 36 -3 4 6 -1 17 -10 24 -17 12 -16 14 4 34 12 12 31 20 43 18
12 -2 30 4 40 13 24 22 92 40 187 49 63 7 157 23 256 45 16 4 20 10 16 34 -3
20 -8 28 -18 24 -9 -3 -14 2 -14 17 0 11 5 18 10 15 6 -3 10 -1 10 4 0 6 -4
11 -9 11 -4 0 -12 17 -16 38 -4 20 -11 57 -16 82 -4 25 -11 60 -15 79 -4 22
-2 36 6 41 9 5 9 9 1 14 -6 4 -11 2 -11 -3 0 -6 -4 -11 -8 -11 -4 0 -8 14 -7
32 0 26 -5 33 -25 39 -16 4 -19 7 -7 8 25 1 21 16 -8 29 -26 12 -34 32 -12 32
7 0 18 -5 25 -12 7 -7 0 11 -15 40 -28 55 -43 59 -43 12 0 -30 -14 -48 -24
-31 -4 5 -1 11 5 13 8 3 7 13 -5 35 -9 18 -13 38 -10 46 3 8 -2 22 -11 30 -13
13 -14 21 -5 38 7 11 9 23 6 27 -3 3 -6 0 -6 -6 0 -7 -10 -11 -22 -11 -17 1
-19 2 -5 6 21 6 22 19 1 27 -9 4 -14 13 -10 21 8 21 -15 55 -36 55 -9 0 -18 5
-20 12 -7 19 -30 -3 -25 -23 3 -11 1 -19 -5 -19 -5 0 -6 -5 -3 -11 4 -6 13 -8
21 -5 8 3 14 -1 14 -9 0 -8 -9 -15 -20 -15 -11 0 -20 -7 -20 -15 0 -9 9 -15
22 -15 21 0 21 0 2 -15 -10 -8 -29 -15 -41 -15 -18 0 -23 -6 -23 -25 0 -14 -6
-25 -12 -26 -10 0 -10 -2 0 -6 34 -14 2 -44 -67 -63 -23 -6 -39 -15 -36 -20 3
-5 1 -11 -5 -15 -11 -7 -32 11 -44 35 -3 9 -5 6 -2 -7 3 -18 -3 -24 -30 -33
-19 -6 -38 -19 -44 -28 -7 -14 -9 -10 -10 16 0 39 -17 43 -22 5 -2 -20 -9 -28
-23 -28 -11 0 -23 4 -26 9 -9 12 -29 -2 -29 -20 0 -8 10 -14 23 -15 21 0 21
-1 2 -9 -11 -5 -32 -9 -47 -9 -16 -1 -28 -5 -28 -11 0 -5 -6 -10 -13 -10 -7 0
-23 -9 -36 -21 -12 -12 -28 -22 -34 -24 -7 -1 -27 -6 -45 -10 -18 -4 -47 -21
-64 -37 -21 -20 -37 -27 -52 -23 -16 5 -18 4 -6 -4 12 -8 9 -12 -13 -20 -15
-6 -30 -18 -33 -26 -4 -8 -12 -15 -19 -15 -7 0 -23 -6 -36 -12 -18 -10 -23
-20 -21 -39 2 -15 -4 -33 -12 -42 -21 -20 -20 -28 2 -20 14 5 13 3 -3 -10 -11
-9 -24 -17 -29 -17 -25 -1 -46 -35 -46 -75 0 -41 -1 -42 -35 -43 -25 -1 -35 3
-35 13 0 8 -3 15 -7 16 -45 4 -88 11 -92 14 -10 11 34 17 50 7 14 -9 18 -8 21
6 10 43 -28 83 -39 42 -3 -11 -10 -20 -15 -20 -5 0 -7 9 -3 20 6 18 -18 76
-37 91 -5 3 -11 33 -14 67 -4 35 -11 59 -16 56 -5 -4 -7 -15 -5 -26 7 -23 -1
-48 -14 -48 -5 0 -9 16 -7 36 1 19 -3 38 -9 42 -6 4 -13 18 -16 32 -2 15 -5 4
-6 -25 -3 -57 -19 -109 -20 -65 -1 19 -3 22 -11 10 -11 -18 -16 -5 -23 62 -3
34 0 51 10 60 8 6 29 32 46 57 l32 46 0 200 c0 196 -1 202 -30 285 l-30 85 13
135 c16 165 18 175 38 194 8 9 64 77 125 153 107 135 109 138 111 193 4 95 0
126 -25 207 -14 43 -30 121 -36 173 -17 143 -23 341 -11 355 5 6 12 49 14 96
3 46 6 86 7 89 2 6 6 76 9 165 3 125 -30 290 -65 323 -22 20 -25 21 -26 5 -1
-10 -7 7 -15 37 -8 30 -13 69 -13 85 1 17 -1 50 -4 75 -12 83 -18 330 -9 330
17 0 24 69 11 105 -7 19 -17 35 -21 35 -4 0 -8 10 -8 22 0 17 3 19 12 10 7 -7
16 -12 22 -12 5 0 -3 10 -18 23 -25 22 -28 32 -42 168 -18 170 -18 178 -9 249
5 43 2 68 -14 114 -12 33 -21 72 -21 89 l0 29 34 -25 c18 -14 61 -54 94 -89z
m-3265 89 c6 -17 -3 -32 -25 -40 -21 -8 -25 22 -6 41 16 16 25 15 31 -1z
m-113 -43 c-15 -17 -40 -19 -40 -2 0 6 8 20 17 30 15 17 18 17 26 3 5 -10 4
-21 -3 -31z m-562 24 c-3 -7 -13 -15 -24 -17 -16 -3 -17 -1 -5 13 16 19 34 21
29 4z m187 1 c9 -14 -26 -52 -38 -40 -12 12 1 51 18 51 8 0 17 -5 20 -11z
m763 2 c10 -6 9 -13 -7 -32 -15 -18 -22 -21 -31 -13 -9 9 -9 17 -1 33 13 23
19 25 39 12z m-486 -20 c-8 -25 -23 -41 -38 -41 -18 0 -18 19 1 40 19 21 45
22 37 1z m374 -2 c3 -6 -6 -23 -20 -38 -14 -15 -26 -32 -26 -37 0 -6 -9 -19
-20 -29 -18 -16 -20 -16 -26 -1 -7 18 21 57 40 53 6 -1 11 7 11 18 0 37 26 58
41 34z m-777 -30 c-11 -21 -24 -24 -34 -9 -9 15 14 40 31 33 10 -4 11 -10 3
-24z m669 -1 c-11 -30 -15 -33 -38 -18 -12 8 -12 11 3 28 27 30 47 25 35 -10z
m-850 10 c-3 -7 -13 -15 -24 -17 -16 -3 -17 -1 -5 13 16 19 34 21 29 4z m372
-11 c0 -8 -9 -22 -20 -32 -18 -16 -20 -16 -26 -1 -7 19 12 46 32 46 8 0 14 -6
14 -13z m370 -7 c0 -11 -7 -23 -15 -27 -21 -8 -28 1 -20 26 8 27 35 27 35 1z
m-684 -16 c-3 -9 -6 -18 -6 -20 0 -2 -7 -4 -15 -4 -18 0 -19 12 -3 28 17 17
31 15 24 -4z m574 -3 c0 -24 -46 -56 -56 -39 -5 7 -3 8 6 3 10 -6 12 -4 7 10
-8 20 8 45 29 45 8 0 14 -8 14 -19z m380 10 c0 -5 2 -15 5 -23 3 -7 -5 -18
-18 -24 -20 -9 -23 -7 -25 10 -1 21 14 46 29 46 5 0 9 -4 9 -9z m1107 -13 c-3
-8 -6 -5 -6 6 -1 11 2 17 5 13 3 -3 4 -12 1 -19z m160 -5 c-3 -3 -11 -2 -17 2
-9 6 -9 10 1 16 14 8 27 -7 16 -18z m-5480 11 c-3 -3 -12 -4 -19 -1 -8 3 -5 6
6 6 11 1 17 -2 13 -5z m3453 -5 c0 -9 -37 -49 -45 -49 -2 0 0 33 4 53 2 12 41
8 41 -4z m265 -29 c-10 -11 -22 -20 -27 -20 -15 0 -8 39 10 49 26 15 39 -5 17
-29z m-382 13 c-10 -28 -24 -43 -40 -43 -23 0 -11 33 17 47 32 16 31 16 23 -4z
m-3303 -3 c0 -5 -4 -10 -9 -10 -6 0 -13 5 -16 10 -3 6 1 10 9 10 9 0 16 -4 16
-10z m3590 -9 c0 -11 -10 -27 -22 -36 -21 -14 -23 -14 -26 0 -4 17 24 55 40
55 4 0 8 -9 8 -19z m377 3 c2 -5 -3 -19 -11 -29 -21 -28 -43 -7 -26 25 11 21
31 23 37 4z m-490 -19 c3 -9 -3 -25 -13 -36 -15 -17 -19 -18 -26 -5 -10 17 6
56 23 56 5 0 12 -7 16 -15z m378 5 c8 -12 -16 -50 -32 -50 -16 0 -17 32 -1 48
14 14 25 15 33 2z m-108 -27 c4 -12 -23 -43 -38 -43 -13 0 -11 34 3 48 14 14
30 11 35 -5z m388 7 c3 -5 -8 -24 -26 -42 -17 -18 -35 -43 -40 -55 -5 -13 -15
-23 -24 -23 -19 0 -20 34 0 50 8 7 15 9 15 5 0 -4 7 -2 15 5 8 7 12 16 9 21
-8 13 15 49 31 49 7 0 17 -4 20 -10z m-775 -14 c0 -22 -29 -41 -42 -28 -8 8
-8 15 2 27 16 19 40 20 40 1z m-123 -16 c2 -20 -8 -26 -20 -13 -4 3 -2 12 4
20 15 17 14 17 16 -7z m397 12 c6 -11 -21 -52 -35 -52 -13 0 -11 34 3 48 14
14 25 15 32 4z m385 -16 c-6 -13 -22 -29 -35 -35 -13 -6 -21 -16 -19 -24 3 -7
-4 -23 -17 -37 -14 -15 -23 -19 -26 -11 -7 21 8 61 23 61 8 0 22 16 31 35 10
22 23 35 35 35 16 0 17 -3 8 -24z m1361 20 c0 -11 -19 -15 -25 -6 -3 5 1 10 9
10 9 0 16 -2 16 -4z m-2924 -33 c-10 -10 -19 5 -10 18 6 11 8 11 12 0 2 -7 1
-15 -2 -18z m1070 -7 c-3 -14 -15 -30 -25 -36 -17 -9 -19 -6 -16 17 2 25 33
59 43 48 2 -2 2 -15 -2 -29z m379 -5 c-3 -12 -15 -21 -26 -21 -23 0 -25 17 -2
42 20 22 38 9 28 -21z m-485 -5 c0 -7 -8 -21 -19 -30 -17 -16 -19 -16 -25 0
-4 10 1 25 10 35 17 19 34 17 34 -5z m374 -14 c-13 -21 -44 -28 -44 -11 0 7 8
21 17 31 21 24 44 7 27 -20z m-98 16 c5 -7 3 -8 -6 -3 -9 5 -10 2 -6 -13 5
-15 -1 -25 -24 -42 -16 -12 -30 -30 -30 -40 0 -11 -11 -27 -25 -36 -14 -9 -25
-25 -25 -35 0 -10 -11 -26 -25 -35 -14 -9 -25 -24 -25 -33 0 -10 -11 -28 -25
-41 -14 -13 -25 -29 -25 -35 0 -7 -9 -20 -20 -30 -17 -16 -20 -16 -26 -2 -7
20 13 57 31 57 8 0 15 8 15 18 1 22 20 46 44 55 11 5 16 13 12 23 -3 9 4 24
17 37 12 12 28 34 35 50 6 15 18 27 26 27 8 0 20 16 26 35 6 19 19 39 28 45
21 12 20 12 28 -2z m1614 -28 c5 0 7 -7 4 -15 -11 -27 -24 -16 -23 18 1 17 3
24 6 15 2 -10 8 -18 13 -18z m-2434 4 c-4 -9 -1 -23 5 -30 6 -7 9 -19 6 -26
-3 -8 -6 -5 -6 6 -1 15 -4 16 -15 7 -19 -16 -30 13 -16 40 13 23 35 26 26 3z
m419 -10 c0 -10 -8 -20 -17 -22 -18 -3 -26 27 -11 42 12 11 28 0 28 -20z
m2050 16 c3 -5 1 -10 -4 -10 -6 0 -11 5 -11 10 0 6 2 10 4 10 3 0 8 -4 11 -10z
m-1767 -21 c-2 -12 -13 -28 -25 -36 -20 -14 -21 -13 -18 12 2 25 19 44 38 45
5 0 7 -10 5 -21z m-3554 -10 c-12 -13 -20 -16 -22 -9 -3 7 2 16 9 21 25 16 32
9 13 -12z m2423 -21 c-3 -7 -5 -2 -5 12 0 14 2 19 5 13 2 -7 2 -19 0 -25z
m1023 13 c0 -24 -27 -48 -40 -35 -6 6 -4 18 6 32 19 27 34 28 34 3z m390 7 c0
-14 -30 -48 -42 -48 -12 0 -10 34 4 48 15 15 38 16 38 0z m-504 -23 c6 -16
-12 -45 -28 -45 -15 0 -21 30 -8 45 16 19 29 19 36 0z m384 -4 c0 -27 -29 -49
-40 -31 -10 16 9 50 27 50 7 0 13 -8 13 -19z m280 -15 c0 -7 -9 -21 -20 -31
-18 -16 -20 -16 -26 -1 -4 10 1 25 11 36 18 20 35 18 35 -4z m-504 -41 c-9
-14 -21 -23 -26 -20 -16 10 -11 43 8 54 27 15 37 -4 18 -34z m392 36 c10 -6 9
-13 -7 -32 -15 -18 -22 -21 -31 -13 -9 9 -8 17 2 33 14 23 17 24 36 12z m-908
-21 c0 -5 -5 -10 -11 -10 -5 0 -7 5 -4 10 3 6 8 10 11 10 2 0 4 -4 4 -10z
m795 -16 c0 -10 -10 -23 -22 -30 -13 -6 -20 -14 -15 -19 4 -5 1 -5 -5 -1 -9 5
-13 -1 -13 -17 0 -27 -23 -52 -40 -42 -18 11 -11 31 20 58 17 15 30 33 30 40
0 17 22 38 35 34 5 -2 10 -12 10 -23z m-375 2 c0 -16 -26 -39 -46 -42 -18 -3
-18 6 2 34 17 24 44 30 44 8z m258 -32 c-4 -23 -26 -30 -34 -10 -8 20 15 51
29 37 5 -5 7 -17 5 -27z m292 6 c0 -5 -10 -20 -21 -31 -16 -16 -23 -18 -29 -9
-11 18 10 50 32 50 10 0 18 -4 18 -10z m-497 -24 c6 -15 -29 -53 -39 -43 -4 3
-4 18 0 32 7 27 30 34 39 11z m377 0 c0 -8 -7 -22 -17 -31 -15 -16 -17 -16
-25 0 -6 10 -5 21 2 31 16 18 40 18 40 0z m-476 -20 c-7 -18 -25 -17 -31 1 -2
6 4 13 14 15 23 5 25 4 17 -16z m-3424 -8 c0 -19 -2 -20 -10 -8 -13 19 -13 30
0 30 6 0 10 -10 10 -22z m3690 -1 c0 -18 -21 -43 -41 -50 -13 -4 -16 -1 -11
16 2 12 9 28 15 35 13 16 37 16 37 -1z m-650 -7 c0 -5 -7 -10 -15 -10 -8 0
-15 5 -15 10 0 6 7 10 15 10 8 0 15 -4 15 -10z m920 -12 c0 -14 -30 -48 -42
-48 -12 0 -10 34 4 48 15 15 38 16 38 0z m-887 -4 c3 -3 -3 -14 -14 -25 -24
-24 -44 -16 -29 12 10 18 31 25 43 13z m407 -25 c0 -23 -27 -36 -42 -21 -14
14 8 53 27 46 8 -4 15 -15 15 -25z m366 10 c3 -6 -3 -21 -15 -33 -18 -18 -23
-19 -31 -6 -6 10 -4 20 7 32 19 21 29 23 39 7z m-96 -35 c0 -31 3 -35 20 -29
27 9 25 -7 -5 -43 l-24 -29 25 -23 c14 -14 27 -40 30 -62 6 -32 9 -36 21 -27
10 9 17 9 25 1 9 -9 5 -19 -16 -41 -16 -16 -34 -38 -40 -48 -70 -117 -73 -120
-86 -107 -15 15 7 64 29 64 10 0 16 9 16 25 0 21 -5 25 -31 25 -37 0 -81 42
-90 87 -5 23 0 41 16 67 12 20 25 36 30 36 10 0 32 63 29 82 -5 26 12 58 32
58 15 0 19 -7 19 -36z m-125 -23 c-6 -21 -29 -28 -39 -13 -3 5 2 19 11 31 18
27 39 14 28 -18z m-1118 -13 c-3 -7 -5 -2 -5 12 0 14 2 19 5 13 2 -7 2 -19 0
-25z m1395 10 c-6 -26 -31 -43 -43 -31 -8 8 -8 17 0 31 14 26 50 26 43 0z
m1348 -8 c0 -5 -2 -10 -4 -10 -3 0 -8 5 -11 10 -3 6 -1 10 4 10 6 0 11 -4 11
-10z m60 2 c0 -13 -12 -22 -22 -16 -10 6 -1 24 13 24 5 0 9 -4 9 -8z m-1637
-26 c6 -16 -29 -53 -40 -43 -7 8 16 57 28 57 4 0 9 -6 12 -14z m-93 -26 c0
-10 -11 -27 -25 -38 -14 -11 -25 -25 -25 -31 0 -6 -4 -11 -10 -11 -5 0 -10 7
-10 15 0 8 5 15 10 15 6 0 10 10 10 22 0 24 28 60 41 52 5 -3 9 -14 9 -24z
m267 -7 c6 -18 -31 -54 -46 -44 -12 8 -12 13 3 36 17 26 36 29 43 8z m1948 7
c3 -5 1 -10 -4 -10 -6 0 -11 5 -11 10 0 6 2 10 4 10 3 0 8 -4 11 -10z m-3265
-25 c0 -8 -4 -15 -10 -15 -5 0 -10 7 -10 15 0 8 5 15 10 15 6 0 10 -7 10 -15z
m1090 -25 c0 -10 -9 -27 -19 -37 -11 -10 -21 -29 -23 -42 -4 -29 -25 -39 -34
-16 -4 9 2 25 13 38 10 12 25 34 33 50 16 32 30 35 30 7z m1707 -6 c-3 -3 -12
-4 -19 -1 -8 3 -5 6 6 6 11 1 17 -2 13 -5z m10 -136 c-2 -18 -4 -4 -4 32 0 36
2 50 4 33 2 -18 2 -48 0 -65z m-27 67 c0 -8 -4 -15 -10 -15 -5 0 -10 7 -10 15
0 8 5 15 10 15 6 0 10 -7 10 -15z m-75 -15 c-3 -5 -11 -10 -16 -10 -6 0 -7 5
-4 10 3 6 11 10 16 10 6 0 7 -4 4 -10z m-1615 -56 c0 -15 -6 -24 -15 -24 -15
0 -21 40 -9 53 12 11 24 -3 24 -29z m-3125 -39 c-11 -8 -26 -19 -32 -25 -7 -6
-13 -7 -13 -2 0 11 40 41 55 41 6 0 1 -6 -10 -14z m3185 1 c0 -17 -24 -38 -33
-29 -4 3 -7 -6 -7 -20 0 -15 -4 -27 -9 -27 -14 0 -25 21 -15 29 5 3 15 18 21
34 13 28 43 38 43 13z m1620 4 c0 -5 -4 -10 -10 -10 -5 0 -10 5 -10 10 0 6 5
10 10 10 6 0 10 -4 10 -10z m-2723 -42 c-3 -8 -6 -5 -6 6 -1 11 2 17 5 13 3
-3 4 -12 1 -19z m163 -14 c21 -4 48 -17 60 -29 l21 -23 -27 -21 c-15 -11 -23
-21 -19 -21 5 0 6 -3 2 -6 -6 -7 -70 26 -76 39 -1 5 -14 19 -27 32 -29 29 -29
29 -7 50 15 15 17 15 25 1 5 -9 26 -19 48 -22z m2970 -18 c0 -11 -19 -15 -25
-6 -3 5 1 10 9 10 9 0 16 -2 16 -4z m-2020 -60 c-17 -22 -40 -20 -40 2 0 30
21 45 39 28 12 -12 12 -18 1 -30z m1620 34 c0 -5 -9 -10 -20 -10 -11 0 -20 5
-20 10 0 6 9 10 20 10 11 0 20 -4 20 -10z m-4972 -40 c-7 -10 -14 -17 -17 -15
-4 4 18 35 25 35 2 0 -1 -9 -8 -20z m5396 -35 l6 -30 -14 25 c-8 14 -12 28 -9
33 7 11 9 7 17 -28z m-5460 -50 c-10 -16 -20 -23 -22 -16 -4 12 28 55 35 47 3
-2 -3 -17 -13 -31z m5486 -25 c0 -11 -4 -20 -10 -20 -5 0 -10 9 -10 20 0 11 5
20 10 20 6 0 10 -9 10 -20z m-5517 -25 c-3 -9 -8 -14 -10 -11 -3 3 -2 9 2 15
9 16 15 13 8 -4z m5544 -87 c-3 -7 -5 -2 -5 12 0 14 2 19 5 13 2 -7 2 -19 0
-25z m-17 -68 c0 -22 -4 -40 -10 -40 -5 0 -10 18 -10 40 0 22 5 40 10 40 6 0
10 -18 10 -40z m77 3 c7 -23 8 -39 2 -41 -5 -2 -9 -15 -9 -28 0 -13 -4 -24
-10 -24 -15 0 -12 48 3 53 10 3 10 9 0 26 -14 23 -17 51 -5 51 4 0 12 -17 19
-37z m-5689 -10 c-16 -37 -28 -51 -28 -32 0 14 27 59 35 59 3 0 -1 -12 -7 -27z
m5692 -133 c0 -11 -4 -20 -10 -20 -5 0 -10 9 -10 20 0 11 5 20 10 20 6 0 10
-9 10 -20z m-5748 -40 c-7 -19 -10 -20 -15 -7 -4 10 -2 17 3 17 6 0 11 10 11
23 1 13 3 16 6 6 2 -8 0 -26 -5 -39z m1244 -39 c7 6 11 15 8 20 -3 5 1 9 9 9
16 0 12 -35 -4 -46 -5 -3 -9 -14 -9 -24 0 -11 -10 -25 -22 -31 l-23 -12 22
-10 c34 -15 56 -2 49 28 -4 14 -2 25 4 25 5 0 10 -4 10 -10 0 -5 9 -10 20 -10
13 0 20 -7 20 -18 0 -13 7 -18 23 -18 17 1 21 -4 19 -20 -2 -12 4 -24 13 -27
8 -4 15 -14 15 -23 0 -16 -1 -16 -18 -1 -22 20 -43 22 -60 5 -9 -9 -12 -9 -13
0 -1 7 -3 17 -4 22 -1 6 -3 13 -4 17 0 3 -10 -2 -21 -12 -11 -10 -23 -15 -27
-12 -3 4 0 7 8 7 17 0 -30 39 -47 40 -17 0 -25 40 -8 40 10 0 14 15 15 53 1
30 4 40 6 24 4 -23 7 -26 19 -16z m1164 23 c0 -2 -13 -4 -30 -4 -16 0 -30 4
-30 8 0 5 14 7 30 4 17 -2 30 -6 30 -8z m3389 -122 c1 -26 -3 -41 -9 -37 -5 3
-10 32 -9 63 1 67 17 44 18 -26z m-4851 46 c11 -13 26 -36 32 -52 12 -32 10
-116 -3 -116 -5 0 -5 -5 -1 -12 4 -7 6 -34 5 -61 -1 -26 1 -53 6 -60 16 -21
36 -95 28 -106 -5 -8 1 -10 20 -5 26 6 27 5 21 -23 -5 -21 -2 -34 9 -43 8 -7
15 -18 15 -24 0 -6 -5 -4 -10 4 -15 23 -12 2 5 -29 8 -16 11 -31 8 -35 -4 -3
0 -6 7 -6 7 0 18 7 24 16 9 12 17 13 37 5 32 -11 79 -54 79 -70 0 -6 5 -11 11
-11 6 0 8 -8 5 -17 -3 -10 -1 -25 4 -33 7 -12 11 -10 19 10 l10 25 0 -23 c1
-13 5 -31 11 -41 7 -15 4 -20 -16 -30 -32 -14 -27 -35 9 -39 15 -2 27 -6 28
-10 5 -64 5 -81 -2 -71 -6 10 -14 6 -33 -14 -26 -28 -26 -51 0 -61 8 -3 14
-12 14 -21 0 -8 7 -15 15 -15 11 0 15 -11 14 -42 -2 -30 -3 -35 -6 -15 -2 15
-6 27 -9 27 -16 0 -87 -44 -76 -47 6 -3 12 -20 12 -38 0 -18 6 -44 13 -57 8
-17 11 -47 7 -91 -3 -36 -2 -63 2 -61 5 3 8 -5 8 -18 0 -13 5 -29 12 -36 9 -9
5 -12 -21 -12 -32 0 -32 0 -30 -45 3 -50 -13 -77 -33 -57 -9 9 -9 12 0 12 7 0
12 7 12 15 0 8 -7 15 -15 15 -9 0 -18 -7 -21 -15 -9 -24 -24 -17 -24 10 0 19
-5 25 -21 25 -14 0 -19 5 -16 14 3 8 -1 20 -9 27 -8 7 -13 18 -10 25 3 7 -6
20 -20 30 -13 11 -24 23 -24 28 0 5 -7 16 -15 25 -48 50 -85 98 -85 110 0 7
-6 11 -15 7 -10 -4 -17 3 -21 22 -3 15 -9 35 -15 45 -6 12 -6 17 3 17 7 0 2 6
-12 13 -20 10 -25 21 -26 53 -1 22 -9 57 -18 78 -9 21 -16 49 -16 62 0 13 -5
24 -12 24 -19 0 3 347 38 585 8 55 14 112 14 127 0 15 5 30 10 33 6 3 10 24
10 45 0 33 8 46 31 49 3 1 15 -9 27 -21z m4822 -49 c0 -24 -4 -38 -10 -34 -5
3 -10 22 -10 41 0 19 5 34 10 34 6 0 10 -18 10 -41z m1431 -42 c-13 -13 -15 1
-4 30 7 17 8 17 11 -1 2 -10 -1 -23 -7 -29z m-5931 -47 c0 -5 -5 -10 -11 -10
-5 0 -7 5 -4 10 3 6 8 10 11 10 2 0 4 -4 4 -10z m60 -3 c33 9 70 -5 70 -27 0
-11 -5 -20 -10 -20 -6 0 -17 -14 -24 -31 l-13 -31 -8 43 c-5 29 -9 37 -12 24
-9 -36 -23 -41 -23 -8 0 17 -2 37 -3 45 -2 7 -2 10 0 7 2 -4 13 -5 23 -2z
m4537 -3 c-3 -3 -12 -4 -19 -1 -8 3 -5 6 6 6 11 1 17 -2 13 -5z m-4570 -76
c-3 -7 -5 -2 -5 12 0 14 2 19 5 13 2 -7 2 -19 0 -25z m4548 12 c3 -5 -1 -10
-10 -10 -9 0 -13 5 -10 10 3 6 8 10 10 10 2 0 7 -4 10 -10z m-4485 -76 c0 -9
-5 -14 -12 -12 -18 6 -21 28 -4 28 9 0 16 -7 16 -16z m4510 -370 c0 -2 -7 -4
-15 -4 -8 0 -15 4 -15 10 0 5 7 7 15 4 8 -4 15 -8 15 -10z m-4531 -255 c23
-19 23 -20 5 -34 -23 -17 -34 -19 -34 -5 0 6 7 10 15 10 23 0 18 18 -7 22 -12
2 -23 9 -26 16 -6 18 20 14 47 -9z m11 -99 c0 -22 -4 -40 -10 -40 -5 0 -10 18
-10 40 0 22 5 40 10 40 6 0 10 -18 10 -40z m-19 -172 c9 -17 9 -24 -3 -32 -8
-6 -20 -24 -26 -41 l-12 -30 6 35 c3 23 2 30 -4 22 -7 -11 -11 -9 -15 8 -4 16
-1 24 14 27 10 3 19 12 19 19 0 20 8 17 21 -8z m-271 -188 c-8 -5 -19 -10 -25
-10 -5 0 -3 5 5 10 8 5 20 10 25 10 6 0 3 -5 -5 -10z m220 -24 c0 -29 -19 -44
-31 -25 -16 25 -10 49 11 49 15 0 20 -7 20 -24z m-150 -46 c0 -5 -4 -10 -10
-10 -5 0 -10 5 -10 10 0 6 5 10 10 10 6 0 10 -4 10 -10z m150 -25 c0 -8 -7
-15 -15 -15 -8 0 -15 7 -15 15 0 8 7 15 15 15 8 0 15 -7 15 -15z m-46 -42 c4
-9 1 -21 -5 -27 -9 -8 -10 -8 -5 2 5 8 0 12 -13 12 -12 0 -21 7 -21 15 0 20
36 19 44 -2z m-39 -102 c10 -18 -17 -23 -33 -7 -15 15 -15 16 5 16 12 0 24 -4
28 -9z m45 -1 c8 -5 11 -10 5 -10 -5 0 -17 5 -25 10 -8 5 -10 10 -5 10 6 0 17
-5 25 -10z m-14 -57 c-10 -10 -19 5 -10 18 6 11 8 11 12 0 2 -7 1 -15 -2 -18z
m5141 -575 c-3 -7 -5 -2 -5 12 0 14 2 19 5 13 2 -7 2 -19 0 -25z m623 6 c0 -2
-17 -4 -37 -3 -33 1 -35 2 -13 8 23 7 50 4 50 -5z m-5772 -95 c22 -1 29 -3 17
-6 -11 -3 -26 -10 -33 -16 -11 -8 -9 -13 10 -23 17 -9 27 -9 36 -1 11 8 12 5
7 -19 -4 -16 -8 -35 -11 -42 -2 -7 6 -16 18 -21 17 -6 22 -17 24 -56 2 -27 9
-52 16 -57 10 -6 10 -8 0 -8 -7 0 -17 11 -22 25 -5 14 -14 25 -20 25 -18 0
-11 -35 10 -48 26 -16 25 -29 -2 -38 -21 -6 -21 -7 -3 -20 18 -13 17 -14 -8
-14 -23 0 -27 -4 -27 -28 0 -15 -5 -33 -11 -39 -12 -12 -3 -53 12 -53 6 0 31
11 57 25 l47 25 6 -52 c3 -29 2 -58 -3 -65 -6 -7 -4 -19 4 -32 11 -18 10 -22
-6 -34 -25 -18 -13 -36 20 -29 20 4 25 1 22 -9 -3 -8 -13 -14 -23 -14 -21 0
-26 -28 -18 -87 5 -37 23 -54 23 -23 0 32 18 13 24 -25 5 -32 9 -38 24 -33 15
6 14 3 -3 -16 l-20 -23 29 -23 c26 -20 28 -26 16 -40 -11 -13 -9 -20 13 -43
15 -16 27 -39 27 -53 0 -14 3 -29 7 -32 3 -4 8 -19 9 -34 2 -16 12 -34 22 -41
17 -11 18 -18 11 -54 -6 -22 -6 -50 -2 -62 4 -11 7 -25 8 -31 0 -5 13 -9 28
-8 24 2 27 -2 27 -27 0 -16 5 -32 10 -35 6 -3 10 -15 10 -26 0 -10 7 -19 15
-19 8 0 15 -4 15 -10 0 -5 -4 -10 -10 -10 -5 0 -10 -9 -10 -21 0 -15 4 -19 16
-15 13 5 14 1 9 -22 -3 -17 2 -59 15 -103 25 -91 25 -99 0 -99 -11 0 -20 -4
-20 -9 0 -5 9 -11 20 -14 14 -4 20 -14 20 -35 0 -17 5 -34 10 -37 6 -3 10 -28
10 -56 0 -27 5 -49 10 -49 6 0 8 -11 4 -26 -4 -15 -2 -29 4 -33 8 -5 7 -18 -3
-46 -7 -22 -11 -51 -8 -64 3 -14 0 -26 -8 -31 -10 -7 -10 -11 0 -24 11 -13 11
-16 0 -16 -10 -1 -9 -4 4 -14 9 -7 17 -19 17 -26 0 -7 -8 -19 -17 -26 -16 -11
-16 -16 -5 -35 10 -15 11 -24 3 -32 -16 -16 -13 -37 4 -37 22 0 19 -57 -5 -82
-17 -18 -19 -30 -14 -72 4 -28 11 -56 16 -62 12 -16 48 -5 77 23 13 12 28 23
32 23 5 0 9 5 9 11 0 6 -9 8 -22 4 -16 -4 -19 -4 -9 3 8 6 10 15 6 23 -5 8 1
6 12 -3 28 -25 53 -23 50 3 -1 12 4 24 11 26 7 3 12 -4 12 -16 0 -14 8 -23 25
-27 14 -3 25 -12 25 -20 0 -8 7 -14 15 -14 8 0 15 -4 15 -9 0 -5 3 -16 6 -25
4 -11 1 -16 -10 -16 -21 0 -21 -16 0 -28 13 -8 18 -31 22 -111 3 -59 9 -101
15 -101 6 0 3 -8 -7 -18 -11 -13 -14 -28 -10 -50 4 -21 3 -32 -5 -32 -6 0 -11
5 -11 10 0 6 -7 10 -15 10 -8 0 -15 -4 -15 -10 0 -5 -11 -12 -25 -16 -24 -6
-25 -10 -25 -73 0 -62 -3 -70 -30 -96 -16 -16 -30 -37 -30 -47 0 -10 -4 -18
-9 -18 -5 0 -12 -14 -16 -30 -4 -17 -10 -30 -14 -30 -4 0 -17 -17 -29 -37 -26
-47 -50 -79 -79 -106 -13 -11 -23 -24 -23 -29 0 -17 -44 -58 -62 -58 -11 0
-16 -5 -13 -10 3 -6 0 -13 -9 -16 -8 -3 -22 -21 -31 -40 -16 -33 -38 -44 -50
-24 -3 6 -11 10 -16 10 -6 0 -4 -7 5 -15 17 -17 11 -42 -15 -65 -11 -10 -15
-25 -12 -42 4 -23 2 -25 -21 -21 -14 3 -26 1 -26 -5 0 -7 -9 -6 -25 1 -27 13
-34 47 -10 47 16 0 20 12 8 23 -3 4 -12 2 -20 -4 -10 -9 -13 -8 -13 1 0 8 -8
22 -17 32 -14 16 -15 21 -4 28 18 10 7 40 -15 40 -12 0 -15 7 -12 25 3 13 1
26 -5 28 -5 1 -6 33 -2 80 7 78 20 100 28 50 3 -23 4 -21 6 9 0 23 16 64 39
103 61 108 62 112 79 187 17 82 17 75 9 146 -3 31 -2 52 4 52 6 0 10 20 10 45
0 25 -5 45 -10 45 -6 0 -8 11 -4 25 3 14 1 31 -5 39 -15 18 -21 94 -8 99 7 2
2 16 -11 34 -12 17 -22 37 -22 45 0 7 -9 38 -20 68 -11 30 -25 98 -30 149 -6
52 -14 97 -18 100 -4 4 -8 33 -9 65 -2 33 -7 62 -13 66 -5 3 -9 26 -9 50 0 82
-11 177 -31 280 -20 103 -33 156 -40 165 -13 16 -60 146 -60 165 0 10 -7 20
-15 24 -8 3 -15 12 -15 21 0 9 -10 35 -22 58 -35 69 -38 76 -38 100 0 13 -4
27 -8 32 -4 6 -14 28 -21 50 -7 22 -25 65 -40 95 -16 30 -39 85 -52 121 -21
62 -22 70 -10 122 9 37 12 84 7 144 -5 74 -3 96 11 124 10 19 17 53 16 79 -1
24 3 51 10 58 8 10 7 16 -4 23 -10 6 -10 9 -1 9 6 0 12 8 12 18 0 10 5 23 11
29 6 6 12 32 13 57 1 35 -2 46 -14 47 -8 0 -5 4 9 10 19 8 21 12 11 24 -10 12
-9 16 4 21 9 3 25 4 36 1 11 -3 23 -1 26 4 3 6 14 7 25 4 23 -8 49 15 49 43 0
33 15 35 18 3 3 -28 7 -31 40 -32z m5149 14 c-3 -10 -5 -2 -5 17 0 19 2 27 5
18 2 -10 2 -26 0 -35z m-5327 -3 c0 -5 -7 -10 -16 -10 -8 0 -12 5 -9 10 3 6
10 10 16 10 5 0 9 -4 9 -10z m7218 -17 c-10 -2 -26 -2 -35 0 -10 3 -2 5 17 5
19 0 27 -2 18 -5z m179 -149 c-3 -3 -12 -4 -19 -1 -8 3 -5 6 6 6 11 1 17 -2
13 -5z m-5612 -90 c-12 -13 -19 -14 -28 -5 -7 7 -8 11 0 11 6 0 14 10 17 23 6
20 7 21 17 4 8 -13 6 -21 -6 -33z m4812 -46 c-3 -8 -6 -5 -6 6 -1 11 2 17 5
13 3 -3 4 -12 1 -19z m-4799 -120 c2 -54 -1 -65 -20 -80 l-22 -16 27 -13 c35
-16 35 -29 0 -30 -25 -2 -25 -2 -5 -6 18 -4 23 -10 20 -31 -3 -31 -21 -33 -26
-2 -3 15 -11 20 -35 20 -27 0 -29 2 -14 13 19 14 39 93 31 123 -3 12 3 27 15
38 12 11 21 25 21 33 0 7 1 13 3 13 2 0 4 -28 5 -62z m4229 40 c-3 -8 -6 -5
-6 6 -1 11 2 17 5 13 3 -3 4 -12 1 -19z m-50 -50 c-3 -8 -6 -5 -6 6 -1 11 2
17 5 13 3 -3 4 -12 1 -19z m460 -10 c-3 -8 -6 -5 -6 6 -1 11 2 17 5 13 3 -3 4
-12 1 -19z m-80 -120 c-3 -8 -6 -5 -6 6 -1 11 2 17 5 13 3 -3 4 -12 1 -19z
m-28 -65 c1 -13 -3 -23 -9 -23 -5 0 -10 19 -9 43 0 32 2 37 9 22 5 -11 9 -30
9 -42z m-4519 -31 c0 -4 -4 -12 -9 -17 -5 -6 -11 -21 -14 -35 -3 -16 -5 -10
-6 18 -1 31 3 42 14 42 8 0 15 -4 15 -8z m-1478 -44 c-9 -9 -12 -7 -12 12 0
19 3 21 12 12 9 -9 9 -15 0 -24z m1465 -140 c-3 -7 -5 -2 -5 12 0 14 2 19 5
13 2 -7 2 -19 0 -25z m4921 -45 c-10 -2 -18 -14 -18 -26 0 -16 -3 -18 -12 -9
-14 14 7 43 31 41 13 -1 13 -2 -1 -6z m-7780 -30 c28 -3 95 -75 118 -125 9
-21 23 -38 31 -38 7 0 13 -10 14 -22 0 -13 2 -31 4 -41 5 -24 -14 -87 -25 -87
-6 0 -10 5 -10 10 0 6 -7 10 -15 10 -8 0 -15 9 -15 19 0 11 -11 28 -25 39 -14
11 -25 26 -24 33 0 11 2 11 6 2 8 -20 23 -15 23 7 0 13 -7 20 -19 20 -22 0
-37 30 -20 41 8 4 -4 12 -29 20 -23 7 -42 17 -42 22 0 5 -8 15 -17 22 -15 11
-16 17 -3 55 8 24 16 36 19 29 4 -8 16 -15 29 -16z m7718 17 c8 0 14 -4 14
-10 0 -14 -50 -24 -62 -12 -14 14 0 35 19 28 8 -3 21 -6 29 -6z m-32 -65 c10
-7 15 -18 11 -24 -9 -16 -25 -13 -25 4 0 8 -4 15 -10 15 -5 0 -10 5 -10 10 0
14 11 12 34 -5z m-1167 -57 c-3 -8 -6 -5 -6 6 -1 11 2 17 5 13 3 -3 4 -12 1
-19z m-6565 -40 c-9 -9 -15 -9 -24 0 -9 9 -7 12 12 12 19 0 21 -3 12 -12z
m2918 -28 c0 -5 -4 -10 -10 -10 -5 0 -10 5 -10 10 0 6 5 10 10 10 6 0 10 -4
10 -10z m-5 -48 c-3 -3 -11 0 -18 7 -9 10 -8 11 6 5 10 -3 15 -9 12 -12z
m6210 -161 c-22 -22 -27 -8 -19 44 l7 48 13 -39 c11 -33 11 -41 -1 -53z
m-9105 53 c0 -20 -24 -44 -44 -44 -19 0 -19 1 -6 34 11 29 50 37 50 10z m9050
-73 c0 -20 -2 -22 -15 -11 -11 9 -12 15 -5 20 6 4 8 15 4 26 -5 16 -4 16 5 4
6 -8 11 -26 11 -39z m124 29 c39 -14 31 -30 -14 -30 -28 0 -40 4 -40 14 0 8 6
17 13 19 6 3 13 6 14 6 1 1 13 -3 27 -9z m-9166 -25 c-4 -17 -1 -25 8 -25 8 0
14 11 15 28 0 27 0 27 11 4 7 -13 17 -21 25 -18 7 3 13 1 13 -4 0 -6 -7 -10
-15 -10 -8 0 -24 -5 -34 -12 -28 -17 -51 -3 -51 32 0 21 5 30 16 30 12 0 15
-7 12 -25z m2879 -27 c-2 -13 -4 -5 -4 17 -1 22 1 32 4 23 2 -10 2 -28 0 -40z
m27 -20 c-3 -4 0 -8 7 -8 10 0 10 -3 2 -11 -17 -17 -31 -3 -25 27 3 18 7 22
13 13 4 -7 5 -17 3 -21z m6186 12 c9 -17 7 -22 -14 -29 -26 -11 -69 -4 -61 10
3 4 12 6 19 3 8 -3 16 4 19 15 7 27 23 27 37 1z m-100 6 c0 -3 -4 -8 -10 -11
-5 -3 -10 -1 -10 4 0 6 5 11 10 11 6 0 10 -2 10 -4z m-8981 -50 c-8 -8 -13 -7
-16 2 -3 6 -11 12 -18 12 -8 0 -16 4 -19 9 -4 5 10 4 29 -2 26 -8 32 -13 24
-21z m2899 -31 c9 -20 9 -25 -1 -25 -17 0 -37 20 -37 37 0 22 26 14 38 -12z
m-2758 -25 c3 -3 13 -9 23 -13 10 -4 16 -11 12 -16 -3 -6 -12 -8 -19 -5 -7 3
-20 -2 -29 -10 -17 -18 -47 -21 -47 -6 0 6 -9 10 -20 10 -22 0 -60 19 -72 35
-5 6 -8 5 -8 -3 0 -7 -4 -11 -10 -7 -5 3 -7 11 -4 19 4 9 25 11 87 8 45 -3 84
-8 87 -12z m8760 -30 c0 -5 -9 -14 -20 -20 -17 -9 -20 -8 -20 10 0 13 7 20 20
20 11 0 20 -4 20 -10z m-8870 -35 c0 -8 -4 -15 -10 -15 -5 0 -10 7 -10 15 0 8
5 15 10 15 6 0 10 -7 10 -15z m43 -25 c-4 -15 -8 -16 -18 -7 -17 16 -7 51 10
37 7 -6 11 -19 8 -30z m2825 23 c-2 -10 -11 -19 -21 -21 -16 -3 -17 -1 -5 17
16 25 31 27 26 4z m-2953 -33 c4 -22 14 -44 23 -50 10 -5 12 -10 5 -10 -29 0
-74 75 -56 94 14 14 22 4 28 -34z m249 31 c9 -13 -33 -61 -48 -55 -14 5 -27
49 -18 59 9 8 60 6 66 -4z m-84 -27 c0 -8 -4 -12 -10 -9 -5 3 -10 10 -10 16 0
5 5 9 10 9 6 0 10 -7 10 -16z m117 -40 c-1 -43 -3 -50 -10 -32 -7 21 -2 88 8
88 2 0 3 -25 2 -56z m8607 41 c-25 -19 -35 -19 -28 0 4 8 16 15 27 15 20 0 20
0 1 -15z m-5924 -24 c0 -10 -11 -28 -25 -41 -21 -19 -25 -21 -25 -7 0 9 7 17
16 17 14 0 14 3 4 15 -10 12 -10 18 0 30 15 18 30 11 30 -14z m-2720 -46 c0
-8 -4 -15 -10 -15 -5 0 -10 7 -10 15 0 8 5 15 10 15 6 0 10 -7 10 -15z m80
-21 c0 -9 6 -14 13 -11 9 3 11 -12 9 -64 -3 -60 -1 -68 12 -63 18 7 21 20 6
29 -5 3 -10 18 -10 33 0 25 1 25 20 -11 11 -20 20 -43 20 -50 0 -7 11 -23 25
-35 29 -26 32 -42 8 -43 -17 -1 -17 -2 -1 -6 14 -3 16 -11 11 -36 -3 -18 -10
-33 -15 -35 -4 -2 -8 -13 -8 -25 0 -20 0 -20 -25 3 -14 13 -25 33 -25 44 0 17
-2 18 -10 6 -6 -10 -10 -11 -10 -2 0 22 -2 27 -12 39 -5 6 -15 10 -22 7 -9 -3
-15 8 -19 33 -9 53 -9 143 1 143 4 0 7 -19 6 -42 -1 -24 1 -30 3 -13 2 17 9
40 15 53 9 17 9 25 0 34 -15 15 -15 28 -2 28 6 0 10 -7 10 -16z m-330 -4 c0
-5 -7 -10 -15 -10 -8 0 -15 5 -15 10 0 6 7 10 15 10 8 0 15 -4 15 -10z m280
-20 c0 -5 -7 -10 -15 -10 -8 0 -15 5 -15 10 0 6 7 10 15 10 8 0 15 -4 15 -10z
m2691 -3 c-1 -12 -15 -9 -19 4 -3 6 1 10 8 8 6 -3 11 -8 11 -12z m-2946 -17
c3 -5 -1 -10 -10 -10 -9 0 -13 5 -10 10 3 6 8 10 10 10 2 0 7 -4 10 -10z
m2925 -100 c-19 -13 -30 -13 -30 0 0 6 10 10 23 10 18 0 19 -2 7 -10z m-1143
-32 c-3 -8 -6 -5 -6 6 -1 11 2 17 5 13 3 -3 4 -12 1 -19z m4913 -178 c-5 -22
-8 -27 -9 -13 -1 21 9 56 14 51 2 -2 0 -19 -5 -38z m30 -42 c0 -19 -2 -20 -10
-8 -13 19 -13 30 0 30 6 0 10 -10 10 -22z m-4927 -215 c-7 -2 -19 -2 -25 0 -7
3 -2 5 12 5 14 0 19 -2 13 -5z m-23 -127 c0 -8 6 -17 13 -20 10 -5 10 -7 0
-12 -7 -3 -14 -15 -14 -27 -1 -17 -3 -15 -9 8 -11 44 -11 65 0 65 6 0 10 -6
10 -14z m250 -43 c0 -10 -4 -14 -8 -8 -4 6 -11 13 -16 18 -5 4 -2 7 7 7 10 0
17 -8 17 -17z m-32 -451 c2 -7 -6 -12 -17 -12 -21 0 -27 11 -14 24 9 9 26 2
31 -12z m-900 -175 c8 3 20 -5 29 -17 8 -11 26 -25 39 -30 17 -7 23 -16 22
-35 -2 -22 -7 -25 -44 -25 -34 0 -45 5 -58 25 -10 14 -14 34 -11 44 3 12 0 21
-10 25 -8 3 -15 10 -15 16 0 7 6 8 18 2 9 -5 23 -7 30 -5z m6892 -207 c0 -5
-4 -10 -10 -10 -5 0 -10 5 -10 10 0 6 5 10 10 10 6 0 10 -4 10 -10z m-5236
-178 c8 -13 -29 -49 -71 -69 -21 -9 -44 -23 -51 -30 -22 -21 -52 -35 -52 -24
0 6 9 15 19 20 10 6 24 24 29 41 7 19 18 30 30 30 11 0 22 6 25 14 3 8 16 16
29 19 13 2 26 5 30 6 4 0 9 -3 12 -7z m5313 -18 c-3 -3 -12 -4 -19 -1 -8 3 -5
6 6 6 11 1 17 -2 13 -5z m4 -47 c-1 -12 -15 -9 -19 4 -3 6 1 10 8 8 6 -3 11
-8 11 -12z m-81 -52 c0 -8 -4 -15 -10 -15 -5 0 -10 7 -10 15 0 8 5 15 10 15 6
0 10 -7 10 -15z m-6512 -72 c-10 -3 -18 -12 -19 -21 0 -14 -2 -14 -6 -2 -3 8
-10 18 -15 21 -5 3 6 6 24 6 18 0 25 -2 16 -4z m1082 -76 c-12 -66 -30 -109
-30 -74 0 27 32 149 38 143 2 -3 -1 -34 -8 -69z m5460 -7 c0 -5 -4 -10 -9 -10
-6 0 -13 5 -16 10 -3 6 1 10 9 10 9 0 16 -4 16 -10z m-60 -35 c0 -8 -4 -17
-10 -20 -6 -4 -10 5 -10 20 0 15 4 24 10 20 6 -3 10 -12 10 -20z m90 -31 c0
-2 -7 -4 -15 -4 -8 0 -15 4 -15 10 0 5 7 7 15 4 8 -4 15 -8 15 -10z m-190 -14
c0 -5 -2 -10 -4 -10 -3 0 -8 5 -11 10 -3 6 -1 10 4 10 6 0 11 -4 11 -10z m115
-47 c-11 -97 -9 -136 11 -150 25 -18 34 -16 34 9 0 15 3 19 10 12 7 -7 3 -24
-10 -52 -16 -32 -18 -47 -10 -61 5 -11 10 -30 10 -43 0 -18 2 -20 10 -8 5 8
10 13 10 10 0 -3 4 -20 10 -39 8 -30 7 -33 -10 -28 -17 4 -20 0 -20 -34 0 -30
4 -39 18 -39 16 -1 16 -1 0 -14 -19 -14 -24 -36 -10 -36 5 0 8 -20 7 -45 -1
-31 -8 -52 -23 -68 -12 -13 -22 -30 -22 -38 0 -8 -5 -20 -12 -27 -9 -9 -6 -12
15 -12 25 0 27 -3 27 -42 0 -24 3 -61 7 -82 4 -28 3 -37 -5 -32 -8 5 -10 2 -6
-8 3 -9 1 -16 -5 -16 -6 0 -11 -11 -11 -25 0 -14 4 -25 8 -25 16 0 11 -68 -6
-75 -13 -5 -13 -7 3 -19 16 -12 16 -13 1 -19 -9 -4 -16 -17 -16 -32 0 -14 -4
-25 -10 -25 -5 0 -10 -9 -10 -19 0 -10 -7 -21 -15 -25 -9 -3 -12 -12 -9 -21 4
-9 13 -14 22 -10 13 5 13 3 1 -11 -11 -13 -13 -53 -11 -183 3 -194 -3 -252
-23 -245 -10 4 -12 -1 -8 -18 4 -16 2 -20 -5 -13 -21 19 -182 270 -182 282 0
7 -4 13 -10 13 -5 0 -9 3 -7 8 1 4 -8 17 -20 30 -13 12 -23 28 -23 35 0 8 4 7
10 -3 7 -11 10 -12 10 -2 0 8 -8 16 -18 19 -14 3 -18 12 -16 31 2 15 1 19 -2
10 -6 -19 -24 -25 -24 -8 0 6 -9 19 -20 30 -11 11 -17 26 -14 35 8 20 -44 96
-64 93 -16 -3 -61 66 -61 92 0 8 8 0 16 -17 20 -40 34 -43 27 -5 -4 19 1 33
15 48 23 25 18 34 -20 34 -38 0 -59 9 -59 27 0 8 4 12 9 8 15 -8 71 57 71 83
0 14 6 22 18 22 38 0 56 45 29 72 -17 17 -32 168 -17 168 5 0 10 -19 11 -42 1
-34 2 -38 8 -19 8 30 31 40 31 14 1 -16 3 -15 20 6 24 28 25 41 3 41 -9 0 -13
3 -9 8 4 4 16 7 27 7 10 0 19 3 19 8 0 4 0 13 0 21 0 7 -10 17 -22 21 -23 7
-23 8 -2 12 28 5 42 36 47 100 3 42 9 57 31 74 14 11 26 25 26 30 0 18 58 69
79 69 11 0 21 5 21 10 0 6 7 10 15 10 8 0 15 5 15 11 0 6 -8 9 -17 6 -80 -26
-93 -33 -93 -49 0 -10 -4 -18 -10 -18 -5 0 -10 6 -10 14 0 8 5 18 10 21 6 3
10 15 10 26 0 17 7 19 62 19 34 0 58 3 54 7 -4 4 -36 6 -72 4 -53 -2 -64 0
-64 13 0 9 5 16 10 16 6 0 10 7 10 16 0 13 10 15 57 12 49 -2 58 0 61 15 2 12
-3 17 -17 17 -12 0 -21 6 -21 15 0 11 11 15 40 15 29 0 40 4 40 15 0 9 9 15
21 15 20 0 21 -4 14 -57z m-125 -8 c10 -13 9 -15 -9 -15 -12 0 -21 6 -21 15 0
8 4 15 9 15 5 0 14 -7 21 -15z m-5038 -107 c-12 -12 -172 -18 -172 -7 0 4 30
10 68 14 37 4 72 8 77 9 18 5 37 -6 27 -16z m4945 -10 c-3 -8 -6 -5 -6 6 -1
11 2 17 5 13 3 -3 4 -12 1 -19z m-5061 -285 c-4 -4 -26 -1 -49 7 -37 13 -44
21 -63 70 -25 64 -40 140 -27 140 10 0 43 -69 43 -88 0 -6 16 -29 37 -49 l36
-38 -6 45 c-18 125 -15 135 10 32 14 -62 23 -115 19 -119z m5364 17 c0 -5 -7
-10 -16 -10 -8 0 -12 5 -9 10 3 6 10 10 16 10 5 0 9 -4 9 -10z m-425 -70 c-3
-5 -11 -10 -16 -10 -6 0 -7 5 -4 10 3 6 11 10 16 10 6 0 7 -4 4 -10z m-3915
-59 c0 -11 -8 -27 -17 -37 -17 -17 -18 -16 -24 12 -7 36 -3 44 22 44 12 0 19
-7 19 -19z m-95 -61 c4 -6 -13 -10 -43 -10 -27 0 -70 -3 -96 -6 -30 -5 -46 -3
-46 4 0 6 26 13 63 15 34 2 74 4 89 5 15 1 30 -2 33 -8z m4415 -51 c0 -5 -7
-9 -15 -9 -9 0 -12 6 -9 15 6 15 24 11 24 -6z m-569 -274 c5 3 6 -1 3 -10 -5
-12 -10 -13 -20 -5 -7 7 -10 19 -6 28 6 16 7 16 10 -1 2 -9 8 -15 13 -12z
m119 -197 c0 -5 -7 -3 -15 6 -8 8 -15 18 -15 22 0 3 7 1 15 -6 8 -7 15 -17 15
-22z m387 -180 c-2 -13 -4 -3 -4 22 0 25 2 35 4 23 2 -13 2 -33 0 -45z"/>
<path d="M8015 7910 c3 -5 8 -10 11 -10 2 0 4 5 4 10 0 6 -5 10 -11 10 -5 0
-7 -4 -4 -10z"/>
<path d="M8080 7825 c0 -8 2 -15 4 -15 2 0 6 7 10 15 3 8 1 15 -4 15 -6 0 -10
-7 -10 -15z"/>
<path d="M7928 7753 c7 -3 16 -2 19 1 4 3 -2 6 -13 5 -11 0 -14 -3 -6 -6z"/>
<path d="M7920 7680 c0 -5 7 -7 15 -4 8 4 15 8 15 10 0 2 -7 4 -15 4 -8 0 -15
-4 -15 -10z"/>
<path d="M8002 7640 c0 -14 2 -19 5 -12 2 6 2 18 0 25 -3 6 -5 1 -5 -13z"/>
<path d="M7980 7610 c0 -5 5 -10 11 -10 5 0 7 5 4 10 -3 6 -8 10 -11 10 -2 0
-4 -4 -4 -10z"/>
<path d="M8015 7513 c7 -67 6 -75 -8 -70 -11 4 -14 2 -10 -9 6 -17 13 -17 36
0 23 18 24 86 1 86 -13 0 -15 7 -10 35 5 23 3 35 -4 35 -8 0 -10 -22 -5 -77z"/>
<path d="M8080 7400 c0 -5 9 -10 20 -10 11 0 20 5 20 10 0 6 -9 10 -20 10 -11
0 -20 -4 -20 -10z"/>
<path d="M8066 7291 c-3 -5 1 -11 9 -14 9 -4 12 -1 8 9 -6 16 -10 17 -17 5z"/>
<path d="M8077 7220 c-7 -27 9 -35 22 -11 6 11 23 22 38 24 20 3 17 4 -13 6
-34 1 -43 -3 -47 -19z"/>
<path d="M8155 7200 c-8 -13 5 -13 25 0 13 8 13 10 -2 10 -9 0 -20 -4 -23 -10z"/>
<path d="M8014 7176 c-10 -21 -9 -24 5 -19 39 14 55 43 24 43 -10 0 -23 -11
-29 -24z"/>
<path d="M8081 7164 c0 -11 3 -14 6 -6 3 7 2 16 -1 19 -3 4 -6 -2 -5 -13z"/>
<path d="M8151 7164 c0 -11 3 -14 6 -6 3 7 2 16 -1 19 -3 4 -6 -2 -5 -13z"/>
<path d="M8110 7155 c0 -8 5 -15 10 -15 6 0 10 7 10 15 0 8 -4 15 -10 15 -5 0
-10 -7 -10 -15z"/>
<path d="M8380 7101 c0 -6 5 -13 10 -16 6 -3 10 1 10 9 0 9 -4 16 -10 16 -5 0
-10 -4 -10 -9z"/>
<path d="M8400 7056 c0 -9 -5 -16 -11 -16 -8 0 -8 -5 1 -15 7 -8 16 -12 21 -9
12 7 11 41 -1 49 -5 3 -10 -1 -10 -9z"/>
<path d="M8320 6929 c0 -5 5 -7 10 -4 6 3 10 8 10 11 0 2 -4 4 -10 4 -5 0 -10
-5 -10 -11z"/>
<path d="M8532 6920 c0 -14 2 -19 5 -12 2 6 2 18 0 25 -3 6 -5 1 -5 -13z"/>
<path d="M8525 6840 c-3 -5 -1 -10 4 -10 6 0 11 5 11 10 0 6 -2 10 -4 10 -3 0
-8 -4 -11 -10z"/>
<path d="M8550 6811 c0 -6 4 -13 10 -16 6 -3 7 1 4 9 -7 18 -14 21 -14 7z"/>
<path d="M8260 6785 c0 -8 4 -15 9 -15 5 0 11 7 15 15 3 9 0 15 -9 15 -8 0
-15 -7 -15 -15z"/>
<path d="M8021 6704 c0 -11 3 -14 6 -6 3 7 2 16 -1 19 -3 4 -6 -2 -5 -13z"/>
<path d="M7145 6490 c-3 -5 -1 -10 4 -10 6 0 11 5 11 10 0 6 -2 10 -4 10 -3 0
-8 -4 -11 -10z"/>
<path d="M7441 6231 c0 -8 -8 -23 -18 -33 -15 -17 -15 -18 1 -18 19 0 30 21
23 47 -3 11 -5 12 -6 4z"/>
<path d="M8480 6134 c0 -8 5 -12 10 -9 6 4 8 11 5 16 -9 14 -15 11 -15 -7z"/>
<path d="M8080 6069 c0 -5 5 -7 10 -4 6 3 10 8 10 11 0 2 -4 4 -10 4 -5 0 -10
-5 -10 -11z"/>
<path d="M7937 5983 c-7 -12 -3 -71 6 -79 4 -4 7 -3 8 2 0 5 2 23 5 41 3 30
-9 53 -19 36z"/>
<path d="M8110 5979 c0 -5 5 -7 10 -4 6 3 10 8 10 11 0 2 -4 4 -10 4 -5 0 -10
-5 -10 -11z"/>
<path d="M8146 5941 c-3 -5 1 -11 9 -14 9 -4 12 -1 8 9 -6 16 -10 17 -17 5z"/>
<path d="M7911 5874 c0 -11 3 -14 6 -6 3 7 2 16 -1 19 -3 4 -6 -2 -5 -13z"/>
<path d="M7850 5819 c0 -24 23 -21 28 4 2 10 -3 17 -12 17 -10 0 -16 -9 -16
-21z"/>
<path d="M8615 5780 c4 -6 11 -8 16 -5 14 9 11 15 -7 15 -8 0 -12 -5 -9 -10z"/>
<path d="M8640 5724 c0 -8 5 -12 10 -9 6 3 10 10 10 16 0 5 -4 9 -10 9 -5 0
-10 -7 -10 -16z"/>
<path d="M9300 5585 c0 -8 5 -15 10 -15 6 0 10 7 10 15 0 8 -4 15 -10 15 -5 0
-10 -7 -10 -15z"/>
<path d="M3733 10080 c-9 -24 -9 -30 2 -30 11 0 24 28 25 53 0 18 -17 4 -27
-23z"/>
<path d="M1200 8540 c0 -11 32 -26 66 -32 11 -2 22 -7 26 -13 4 -5 8 2 8 16 0
22 -4 26 -24 22 -13 -3 -27 0 -30 6 -9 14 -46 14 -46 1z"/>
<path d="M1350 8195 c0 -18 19 -40 26 -32 4 4 0 15 -9 24 -9 10 -17 13 -17 8z"/>
<path d="M1340 7981 c14 -27 36 -40 27 -17 -4 10 -7 22 -7 27 0 5 -7 9 -15 9
-12 0 -14 -4 -5 -19z"/>
<path d="M1336 7925 c-15 -11 -17 -18 -9 -26 6 -6 9 -18 6 -25 -3 -8 1 -14 11
-14 12 0 15 9 14 40 -1 22 -2 40 -2 40 -1 0 -10 -7 -20 -15z"/>
<path d="M1305 7880 c-3 -5 -1 -10 4 -10 6 0 11 5 11 10 0 6 -2 10 -4 10 -3 0
-8 -4 -11 -10z"/>
<path d="M1370 6630 c0 -5 5 -10 10 -10 6 0 10 5 10 10 0 6 -4 10 -10 10 -5 0
-10 -4 -10 -10z"/>
<path d="M1552 5796 c-2 -36 3 -52 16 -62 23 -18 32 -17 32 1 0 8 -3 15 -8 15
-4 0 -7 19 -6 43 1 39 1 39 -3 5 -6 -51 -21 -48 -26 5 l-4 42 -1 -49z"/>
<path d="M1840 4280 c0 -5 5 -10 10 -10 6 0 10 5 10 10 0 6 -4 10 -10 10 -5 0
-10 -4 -10 -10z"/>
<path d="M2055 4060 c3 -5 10 -10 16 -10 5 0 9 5 9 10 0 6 -7 10 -16 10 -8 0
-12 -4 -9 -10z"/>
<path d="M2050 4020 c0 -5 7 -10 15 -10 8 0 15 5 15 10 0 6 -7 10 -15 10 -8 0
-15 -4 -15 -10z"/>
<path d="M187 5344 c-13 -13 -7 -24 14 -24 11 0 19 5 17 12 -5 14 -22 21 -31
12z"/>
<path d="M240 5265 c0 -8 2 -15 4 -15 2 0 6 7 10 15 3 8 1 15 -4 15 -6 0 -10
-7 -10 -15z"/>
<path d="M8001 2984 c0 -11 3 -14 6 -6 3 7 2 16 -1 19 -3 4 -6 -2 -5 -13z"/>
<path d="M7875 2790 c3 -5 10 -10 16 -10 5 0 9 5 9 10 0 6 -7 10 -16 10 -8 0
-12 -4 -9 -10z"/>
<path d="M7770 2485 c-18 -22 -8 -33 12 -13 10 9 13 20 9 23 -5 2 -14 -2 -21
-10z"/>
<path d="M7663 2360 c0 -25 2 -35 4 -22 2 12 2 32 0 45 -2 12 -4 2 -4 -23z"/>
<path d="M8030 2194 l-35 -14 34 5 c34 5 48 12 40 19 -2 2 -20 -3 -39 -10z"/>
<path d="M7570 2137 c0 -8 7 -14 15 -14 8 0 15 6 15 14 0 7 -7 13 -15 13 -8 0
-15 -6 -15 -13z"/>
<path d="M7635 2141 c-6 -11 9 -23 19 -14 9 9 7 23 -3 23 -6 0 -12 -4 -16 -9z"/>
<path d="M8022 2110 c0 -19 2 -27 5 -17 2 9 2 25 0 35 -3 9 -5 1 -5 -18z"/>
<path d="M7659 2087 c-15 -12 -22 -100 -6 -90 4 2 7 0 7 -5 0 -6 8 -8 19 -5
13 3 17 11 14 24 -3 10 -9 19 -13 19 -13 0 -20 44 -7 52 6 4 9 9 7 12 -3 2
-12 -1 -21 -7z"/>
<path d="M7614 2021 c4 -6 0 -18 -8 -27 -9 -8 -16 -21 -16 -27 0 -7 5 -4 11 6
6 9 14 15 20 12 5 -4 9 3 9 14 0 11 -5 23 -12 27 -7 4 -8 3 -4 -5z"/>
<path d="M7751 1784 c0 -11 3 -14 6 -6 3 7 2 16 -1 19 -3 4 -6 -2 -5 -13z"/>
<path d="M7800 1750 c0 -5 5 -10 10 -10 6 0 10 5 10 10 0 6 -4 10 -10 10 -5 0
-10 -4 -10 -10z"/>
<path d="M5220 10757 c7 -45 16 -67 29 -67 12 0 31 48 31 80 0 27 -3 30 -33
30 l-34 0 7 -43z"/>
<path d="M4616 10445 c-4 -19 -2 -44 4 -54 7 -13 7 -22 0 -26 -17 -11 -11 -35
9 -35 29 0 32 12 25 85 -7 72 -27 88 -38 30z"/>
<path d="M4614 10240 c2 -46 -1 -81 -7 -83 -6 -2 -6 -20 1 -53 6 -28 9 -60 6
-71 -3 -11 -1 -24 6 -28 7 -5 8 -11 1 -19 -16 -19 -27 -306 -12 -306 9 0 11
-20 9 -70 -2 -38 -7 -72 -10 -76 -4 -3 -2 -18 4 -33 11 -29 18 -131 8 -131 -9
0 -9 -41 2 -97 5 -29 14 -53 19 -53 5 0 9 -5 9 -11 0 -6 -10 -8 -22 -5 -13 3
-17 3 -10 0 6 -3 12 -19 12 -35 0 -17 3 -28 8 -25 4 2 9 -20 10 -50 2 -30 0
-54 -5 -54 -4 0 -8 -20 -9 -45 0 -24 3 -42 8 -39 11 7 58 -47 57 -66 -1 -10
-3 -9 -6 3 -3 10 -12 17 -21 15 -20 -4 -28 -28 -10 -28 15 0 40 -74 41 -121 0
-15 5 -26 11 -25 6 0 12 -3 13 -9 1 -5 -7 -8 -19 -7 -17 3 -20 0 -15 -20 4
-12 7 -32 8 -43 1 -11 5 -4 9 15 6 31 7 27 15 -37 4 -40 12 -73 17 -73 5 0 6
-9 3 -21 -4 -13 0 -27 11 -40 9 -11 17 -33 17 -49 0 -18 6 -30 14 -30 7 0 13
-10 13 -22 1 -29 21 -56 37 -51 7 3 16 -3 19 -11 4 -11 13 -14 25 -11 17 6 18
4 8 -19 -7 -15 -21 -26 -31 -26 -11 0 -16 -5 -13 -10 4 -6 13 -7 23 -1 19 9
42 4 42 -10 0 -4 -7 -6 -15 -3 -8 4 -15 1 -15 -5 0 -6 5 -11 10 -11 6 0 10 -9
10 -20 0 -11 7 -23 15 -26 18 -7 20 -31 3 -36 -8 -3 -6 -14 7 -36 10 -17 22
-29 27 -26 12 8 10 -20 -3 -33 -6 -6 -8 -17 -4 -23 6 -9 9 -9 15 0 12 19 32 1
24 -22 -5 -18 -3 -20 25 -16 17 2 31 1 31 -4 0 -4 -10 -8 -23 -8 -13 0 -27 -3
-30 -7 -11 -10 13 -33 34 -33 26 0 24 -15 -3 -28 -22 -11 -23 -11 -3 -17 25
-8 55 -67 37 -73 -19 -6 -14 -22 8 -22 15 0 20 -7 20 -24 0 -18 7 -26 23 -29
19 -4 18 -4 -5 -6 -35 -1 -37 -21 -3 -21 14 0 25 -4 25 -10 0 -5 -4 -10 -10
-10 -17 0 1 -28 21 -33 19 -5 27 -37 9 -37 -5 0 -10 -7 -10 -15 0 -27 21 -16
36 20 16 38 34 46 34 15 0 -12 7 -20 17 -20 14 0 14 -2 -2 -20 -10 -11 -26
-20 -37 -20 -15 0 -17 -5 -12 -27 9 -37 13 -43 28 -43 9 0 12 -9 8 -25 -2 -14
2 -32 9 -41 8 -9 14 -22 14 -28 2 -18 18 -50 29 -58 20 -14 26 -8 26 23 0 32
13 51 43 62 26 10 9 30 -19 23 -13 -4 -24 -2 -24 3 0 11 74 21 78 9 2 -4 8 -8
12 -8 9 0 7 49 -5 180 -3 30 -6 67 -8 81 -1 14 -7 32 -13 40 -12 14 -13 20
-34 144 -17 96 -20 105 -30 80 -7 -16 -9 -12 -9 18 -1 21 -8 49 -17 62 -9 14
-14 34 -11 45 3 10 -1 24 -9 31 -8 6 -14 20 -14 30 0 10 -9 21 -21 24 -15 5
-18 10 -10 18 16 16 13 38 -6 53 -10 7 -18 16 -19 21 0 4 -4 16 -9 27 -5 11
-3 26 4 39 11 17 11 19 -4 14 -9 -4 -13 -3 -10 2 9 16 -16 25 -26 10 -7 -10
-8 -6 -5 11 7 31 9 59 7 85 -2 19 -2 19 -14 -2 -11 -19 -12 -16 -12 28 0 27
-5 53 -12 57 -6 4 -11 24 -11 45 0 39 -17 71 -33 61 -15 -9 -10 16 6 32 21 21
19 47 -7 80 -23 28 -47 99 -48 140 0 12 -7 27 -15 34 -8 7 -13 16 -10 20 3 5
1 11 -5 15 -5 3 -10 19 -10 34 0 16 -7 34 -15 41 -8 7 -15 26 -15 43 0 29 -14
93 -30 132 -18 44 -20 56 -8 49 8 -5 9 -2 5 10 -4 10 -7 23 -7 29 0 8 -4 7 -9
-2 -5 -7 -14 -10 -20 -7 -8 5 -7 12 4 22 19 20 19 38 0 54 -13 11 -13 15 -3
22 10 7 9 11 -4 19 -10 5 -18 21 -18 34 0 16 -6 25 -15 25 -17 0 -20 35 -4 46
6 3 9 15 6 25 -6 21 19 53 34 44 5 -4 9 1 9 10 0 9 -4 14 -9 11 -5 -3 -14 1
-21 9 -10 13 -9 15 9 15 12 0 21 6 21 15 0 18 -17 20 -23 3 -7 -21 -17 -3 -21
36 -5 56 -16 56 -18 0 -1 -47 -2 -47 -5 -9 -3 22 -9 44 -14 50 -15 15 -10 43
9 54 9 6 11 11 5 11 -7 0 -13 8 -13 18 0 10 -9 25 -20 35 -24 20 -27 79 -5 97
9 7 15 29 15 51 0 28 -4 39 -15 39 -11 0 -15 -11 -15 -40 0 -22 -4 -40 -10
-40 -5 0 -10 16 -10 35 0 36 32 81 50 70 22 -14 8 21 -15 38 l-25 18 0 -30 c0
-23 -4 -29 -15 -25 -12 5 -13 9 -4 21 9 10 9 17 0 26 -8 8 -6 14 11 24 22 12
22 12 3 13 -12 0 -26 -5 -33 -12 -6 -6 -15 -8 -19 -4 -4 4 -1 11 7 17 13 8 13
10 0 18 -8 6 -11 13 -7 17 3 4 13 1 22 -6 9 -7 19 -10 23 -6 4 4 -1 12 -11 17
-9 6 -17 16 -17 24 0 23 -22 29 -37 10 -12 -18 -13 -18 -13 2 0 12 5 25 10 28
18 11 10 25 -14 25 -24 0 -24 -1 -22 -80z m186 -576 c0 -8 -4 -12 -10 -9 -5 3
-10 10 -10 16 0 5 5 9 10 9 6 0 10 -7 10 -16z m167 -776 c-3 -7 -5 -2 -5 12 0
14 2 19 5 13 2 -7 2 -19 0 -25z m70 -130 c-3 -7 -5 -2 -5 12 0 14 2 19 5 13 2
-7 2 -19 0 -25z m-227 -264 c0 -8 -4 -12 -10 -9 -5 3 -10 13 -10 21 0 8 5 12
10 9 6 -3 10 -13 10 -21z m200 -374 c0 -5 -4 -10 -10 -10 -5 0 -10 5 -10 10 0
6 5 10 10 10 6 0 10 -4 10 -10z m190 -320 c0 -5 -4 -10 -10 -10 -5 0 -10 5
-10 10 0 6 5 10 10 10 6 0 10 -4 10 -10z m85 -169 c-3 -6 -11 -8 -17 -5 -6 4
-5 9 3 15 16 10 23 4 14 -10z"/>
<path d="M5790 10130 c0 -5 5 -10 10 -10 6 0 10 5 10 10 0 6 -4 10 -10 10 -5
0 -10 -4 -10 -10z"/>
<path d="M5675 10049 c-11 -16 -1 -19 13 -3 7 8 8 14 3 14 -5 0 -13 -5 -16
-11z"/>
<path d="M5670 9985 c0 -8 2 -15 4 -15 2 0 6 7 10 15 3 8 1 15 -4 15 -6 0 -10
-7 -10 -15z"/>
<path d="M4760 9956 c0 -20 5 -36 10 -36 6 0 10 -7 10 -15 0 -8 4 -15 8 -15
18 0 21 14 7 34 -8 11 -15 28 -15 38 0 9 -4 20 -10 23 -6 4 -10 -8 -10 -29z"/>
<path d="M4843 9790 c-12 -28 -8 -39 8 -23 6 6 9 19 6 29 -3 17 -5 16 -14 -6z"/>
<path d="M5316 9613 c-8 -21 -9 -21 19 -15 30 5 33 18 6 25 -12 3 -22 -1 -25
-10z"/>
<path d="M5241 9578 c-1 -22 4 -28 19 -28 11 0 20 7 20 15 0 8 -6 15 -14 15
-8 0 -17 6 -19 13 -3 6 -6 0 -6 -15z"/>
<path d="M5400 9584 c0 -8 -4 -12 -10 -9 -11 7 -14 -8 -3 -18 3 -4 12 1 19 11
16 21 17 32 4 32 -5 0 -10 -7 -10 -16z"/>
<path d="M4835 9530 c3 -5 8 -10 11 -10 2 0 4 5 4 10 0 6 -5 10 -11 10 -5 0
-7 -4 -4 -10z"/>
<path d="M5787 9240 c3 -11 13 -20 22 -20 10 0 17 8 17 20 0 14 -7 20 -22 20
-17 0 -21 -4 -17 -20z"/>
<path d="M4632 9095 c0 -16 2 -22 5 -12 2 9 2 23 0 30 -3 6 -5 -1 -5 -18z"/>
<path d="M5041 9044 c0 -11 3 -14 6 -6 3 7 2 16 -1 19 -3 4 -6 -2 -5 -13z"/>
<path d="M5852 9001 c-10 -6 -8 -10 8 -14 12 -3 19 -10 15 -16 -4 -7 5 -11 22
-11 22 0 25 2 13 10 -8 5 -15 15 -15 22 0 16 -25 21 -43 9z"/>
<path d="M5730 8970 c0 -5 7 -10 16 -10 8 0 12 5 9 10 -3 6 -10 10 -16 10 -5
0 -9 -4 -9 -10z"/>
<path d="M5920 8890 c0 -5 5 -10 10 -10 6 0 10 5 10 10 0 6 -4 10 -10 10 -5 0
-10 -4 -10 -10z"/>
<path d="M4662 8835 c-2 -33 13 -64 25 -52 4 5 2 11 -4 15 -6 4 -13 21 -16 37
l-4 30 -1 -30z"/>
<path d="M5860 8816 c0 -3 5 -17 10 -32 10 -24 13 -26 26 -13 19 19 8 49 -17
49 -10 0 -19 -2 -19 -4z"/>
<path d="M5760 8767 c0 -27 13 -36 26 -16 3 6 -1 18 -10 27 -15 15 -16 14 -16
-11z"/>
<path d="M5890 8686 c0 -9 5 -16 10 -16 6 0 10 4 10 9 0 6 -4 13 -10 16 -5 3
-10 -1 -10 -9z"/>
<path d="M5760 8590 c0 -5 5 -10 10 -10 6 0 10 5 10 10 0 6 -4 10 -10 10 -5 0
-10 -4 -10 -10z"/>
<path d="M4734 8469 c-3 -6 -1 -16 5 -22 8 -8 11 -5 11 11 0 24 -5 28 -16 11z"/>
<path d="M5890 8440 c0 -5 5 -10 10 -10 6 0 10 5 10 10 0 6 -4 10 -10 10 -5 0
-10 -4 -10 -10z"/>
<path d="M2892 7880 c0 -14 2 -19 5 -12 2 6 2 18 0 25 -3 6 -5 1 -5 -13z"/>
<path d="M2898 7773 c-2 -5 -1 -28 3 -53 l6 -45 1 53 c2 48 -2 63 -10 45z"/>
<path d="M2901 7562 c0 -24 -5 -41 -10 -38 -4 3 -6 -6 -3 -19 2 -14 8 -22 13
-20 4 3 9 -12 11 -32 2 -21 5 -33 9 -28 3 6 0 48 -7 95 -8 63 -12 74 -13 42z"/>
<path d="M5323 7400 c0 -25 2 -35 4 -22 2 12 2 32 0 45 -2 12 -4 2 -4 -23z"/>
<path d="M2918 7340 c-1 -33 -2 -70 -2 -82 -1 -12 5 -23 13 -26 10 -3 12 0 7
14 -5 11 -7 49 -7 87 1 37 0 67 -3 67 -4 0 -7 -27 -8 -60z"/>
<path d="M5239 7353 c0 -5 -2 -19 -3 -32 -3 -24 36 -71 42 -51 2 5 12 10 22
10 9 0 24 7 31 16 11 14 11 18 -4 29 -9 7 -17 17 -17 24 0 12 -69 16 -71 4z
m61 -38 c0 -8 -4 -15 -10 -15 -5 0 -10 7 -10 15 0 8 5 15 10 15 6 0 10 -7 10
-15z"/>
<path d="M4918 7283 c7 -3 16 -2 19 1 4 3 -2 6 -13 5 -11 0 -14 -3 -6 -6z"/>
<path d="M5360 7259 c0 -20 8 -39 22 -50 l21 -19 -24 0 c-29 0 -43 9 -52 33
-9 24 -25 21 -29 -5 -2 -15 -11 -24 -24 -26 -12 -2 -24 -12 -27 -23 -3 -11
-14 -19 -26 -19 -12 0 -21 -4 -21 -10 0 -5 -21 -10 -47 -10 -25 0 -44 -2 -41
-5 13 -13 352 -3 440 14 12 2 -23 61 -38 61 -8 0 -14 5 -14 10 0 6 -5 10 -12
10 -6 0 -20 7 -30 17 -15 13 -18 14 -18 2 0 -8 5 -20 12 -27 9 -9 8 -12 -6
-12 -9 0 -14 5 -11 10 4 6 -7 10 -24 10 -29 0 -31 3 -31 35 0 19 -4 35 -10 35
-5 0 -10 -14 -10 -31z"/>
<path d="M4975 7120 c-13 -6 -15 -9 -5 -9 8 0 22 4 30 9 18 12 2 12 -25 0z"/>
<path d="M5815 7049 c-102 -14 -115 -25 -115 -104 0 -88 16 -158 52 -235 38
-79 51 -96 112 -149 31 -27 57 -41 76 -41 53 0 117 75 161 189 23 62 44 254
30 280 -14 24 -112 59 -186 64 -33 3 -91 1 -130 -4z m230 -52 l60 -13 1 -39
c1 -33 1 -34 -3 -8 -3 26 -10 34 -31 39 -15 3 -43 10 -62 15 -46 12 -182 12
-214 0 -13 -6 -26 -20 -29 -33 -3 -18 -5 -16 -6 9 -1 22 4 33 17 36 36 10 210
6 267 -6z m-69 -59 c19 -9 21 -15 13 -40 -4 -17 -4 -40 2 -54 5 -14 9 -27 9
-29 0 -5 -124 6 -129 11 -2 2 8 4 22 4 15 0 27 2 27 4 0 2 3 12 7 21 5 15 1
16 -25 10 -38 -8 -38 -7 -12 50 21 46 33 49 86 23z m-209 -45 c-3 -10 -5 -4
-5 12 0 17 2 24 5 18 2 -7 2 -21 0 -30z m330 -50 c-3 -10 -5 -4 -5 12 0 17 2
24 5 18 2 -7 2 -21 0 -30z m-317 12 c0 -8 -2 -15 -4 -15 -2 0 -6 7 -10 15 -3
8 -1 15 4 15 6 0 10 -7 10 -15z m58 -79 c21 1 33 -3 37 -15 3 -9 17 -29 31
-45 22 -25 28 -27 47 -17 13 7 31 25 41 40 11 16 28 34 39 41 17 10 19 10 13
-5 -5 -14 -2 -16 14 -12 11 3 20 1 20 -4 0 -5 -7 -9 -16 -9 -9 0 -18 -9 -21
-20 -3 -11 -10 -20 -15 -20 -5 0 -6 -4 -3 -10 3 -5 2 -10 -4 -10 -5 0 -13 -9
-16 -20 -5 -16 -15 -20 -51 -20 -31 0 -51 6 -66 20 -12 11 -18 20 -14 20 4 0
0 7 -8 16 -9 8 -16 21 -16 29 0 13 -29 29 -37 21 -3 -2 3 -18 12 -36 9 -18 14
-34 11 -37 -7 -7 -42 70 -51 112 l-7 30 14 -25 c11 -19 22 -25 46 -24z m2 13
c0 -5 -4 -9 -10 -9 -5 0 -10 7 -10 16 0 8 5 12 10 9 6 -3 10 -10 10 -16z m211
-112 c-10 -9 -11 -8 -5 6 3 10 9 15 12 12 3 -3 0 -11 -7 -18z m-149 -62 c29
-32 38 -56 13 -35 -9 7 -30 32 -48 54 -34 43 -12 31 35 -19z"/>
<path d="M5912 6918 c-15 -15 -16 -38 -2 -38 12 0 23 25 18 40 -2 7 -7 7 -16
-2z"/>
<path d="M5950 6904 c0 -8 5 -12 10 -9 6 3 10 10 10 16 0 5 -4 9 -10 9 -5 0
-10 -7 -10 -16z"/>
<path d="M5942 6858 c5 -15 28 -23 28 -10 0 5 -7 13 -16 16 -10 4 -14 1 -12
-6z"/>
<path d="M4840 7030 c0 -5 5 -10 10 -10 6 0 10 5 10 10 0 6 -4 10 -10 10 -5 0
-10 -4 -10 -10z"/>
<path d="M4899 6995 c-7 -23 4 -121 14 -132 4 -3 10 -3 14 1 4 4 2 10 -4 14
-7 4 -13 37 -15 72 -2 36 -6 56 -9 45z"/>
<path d="M4871 6974 c0 -11 3 -14 6 -6 3 7 2 16 -1 19 -3 4 -6 -2 -5 -13z"/>
<path d="M4912 6780 c0 -14 2 -19 5 -12 2 6 2 18 0 25 -3 6 -5 1 -5 -13z"/>
<path d="M2883 6722 c1 -18 7 -31 12 -30 12 4 8 39 -5 52 -7 7 -9 -1 -7 -22z"/>
<path d="M6360 6600 c0 -5 5 -10 10 -10 6 0 10 5 10 10 0 6 -4 10 -10 10 -5 0
-10 -4 -10 -10z"/>
<path d="M2787 6181 c-17 -18 -17 -19 0 -24 10 -2 26 -8 36 -12 10 -4 17 -3
17 4 0 6 -9 11 -20 11 -11 0 -20 5 -20 10 0 6 18 10 40 10 22 0 40 5 40 10 0
17 -74 10 -93 -9z"/>
<path d="M6396 5515 c-3 -9 -6 -22 -5 -28 0 -7 5 -1 10 12 5 13 8 26 5 28 -2
2 -6 -3 -10 -12z"/>
<path d="M2801 5184 c0 -11 3 -14 6 -6 3 7 2 16 -1 19 -3 4 -6 -2 -5 -13z"/>
</g>
</svg>
